<?xml version="1.0" encoding="UTF-8"?>
<svg version="1.1" xmlns="http://www.w3.org/2000/svg" width="502" height="497">
<path d="M0 0 C0.93690674 0.51643066 1.87381348 1.03286133 2.83911133 1.56494141 C10.85185293 5.99452273 18.825973 10.49407168 26.78393555 15.02124023 C34.87694584 19.6235216 43.04837453 24.07247208 51.2421875 28.4921875 C60.19510051 33.32849298 69.09831038 38.15281471 77.66796875 43.6484375 C82.28821954 46.46076407 87.05391111 48.99327288 91.8125 51.5625 C93.51741762 52.49128762 95.22185906 53.42094996 96.92578125 54.3515625 C97.77019775 54.81208008 98.61461426 55.27259766 99.48461914 55.74707031 C101.31087481 56.74336328 103.13686683 57.74013965 104.96264648 58.73730469 C109.85997215 61.41117181 114.76124828 64.07719222 119.671875 66.7265625 C128.6026681 71.55377222 137.42327728 76.43130693 146.01953125 81.8359375 C151.74631972 85.37613401 157.713719 88.47895684 163.69140625 91.5703125 C164.36316895 91.9209375 165.03493164 92.2715625 165.72705078 92.6328125 C167.0435692 93.3191943 168.36341946 93.99923523 169.68701172 94.671875 C174.44578799 97.15669105 178.04147122 99.29760296 179.8125 104.5 C179.8125 107.5625 179.8125 107.5625 178.125 110.375 C175.78041275 112.5928528 174.84472994 112.9688213 171.8125 113.5625 C171.87383866 123.5944503 171.95103646 133.62614317 172.04821491 143.65781403 C172.0928513 148.31645461 172.13212213 152.9750091 172.15893555 157.63378906 C172.18503585 162.13380092 172.22548547 166.63348027 172.27568626 171.13328552 C172.2923096 172.84594064 172.30385202 174.55865322 172.31011391 176.27137756 C172.31980467 178.67931585 172.34792165 181.08641212 172.38012695 183.49414062 C172.37797432 184.54503372 172.37797432 184.54503372 172.3757782 185.61715698 C172.52693875 193.66217642 175.12093302 199.87093302 180.8125 205.5625 C183.09112832 207.08790191 185.36136285 208.31290067 187.8125 209.5625 C187.55078125 211.44140625 187.55078125 211.44140625 186.8125 213.5625 C185.10546875 214.65234375 185.10546875 214.65234375 183 215.5 C174.43230861 219.47076606 172.02981593 228.25110051 168.8125 236.5625 C167.8225 236.2325 166.8325 235.9025 165.8125 235.5625 C164.4609375 232.7265625 164.4609375 232.7265625 163.1875 229.1875 C162.76210938 228.02476562 162.33671875 226.86203125 161.8984375 225.6640625 C161.18814685 223.63539066 160.49220746 221.60162237 159.8125 219.5625 C159.1525 219.5625 158.4925 219.5625 157.8125 219.5625 C157.8125 218.9025 157.8125 218.2425 157.8125 217.5625 C157.090625 217.294375 156.36875 217.02625 155.625 216.75 C152.83659874 215.57267502 150.37154276 214.17104116 147.8125 212.5625 C147.9375 210.75 147.9375 210.75 148.8125 208.5625 C150.1428125 207.9128125 150.1428125 207.9128125 151.5 207.25 C155.61826777 205.15201453 158.35749956 202.48090461 160.8125 198.5625 C161.8561966 194.52078571 161.96606309 190.64021113 162.01782227 186.47729492 C162.02772186 185.78406128 162.03762146 185.09082764 162.04782104 184.37658691 C162.07925875 182.09874823 162.10412284 179.82088873 162.12890625 177.54296875 C162.14949112 175.95827206 162.17048799 174.37358067 162.19187927 172.78889465 C162.24694171 168.62806505 162.29642045 164.46718721 162.34472656 160.30627441 C162.39505752 156.05635306 162.45068293 151.80650134 162.50585938 147.55664062 C162.61324721 139.22531938 162.71473479 130.89393969 162.8125 122.5625 C158.56773628 123.31550275 155.66357813 124.60101223 151.9375 126.8125 C150.68800536 127.54383285 149.437965 128.27423381 148.1875 129.00390625 C147.49527344 129.41012207 146.80304688 129.81633789 146.08984375 130.23486328 C141.72746729 132.778024 137.33196523 135.26283285 132.9375 137.75 C131.96449951 138.30171875 130.99149902 138.8534375 129.98901367 139.421875 C121.79297836 144.05097553 113.50966683 148.50748489 105.2043457 152.93676758 C98.34611679 156.62983491 91.86337645 160.63193891 85.51953125 165.1484375 C82.8125 166.5625 82.8125 166.5625 79.94921875 166.2890625 C79.24410156 166.04929688 78.53898437 165.80953125 77.8125 165.5625 C77.59335937 164.76328125 77.37421875 163.9640625 77.1484375 163.140625 C71.52881788 143.67755217 61.20492223 127.75341767 43.25 117.625 C34.82958753 113.08763124 26.74036588 112.23016056 17.3125 112.3125 C16.42691406 112.30476563 15.54132813 112.29703125 14.62890625 112.2890625 C6.40994416 112.31320042 -0.85525835 113.14631375 -7.8125 117.8125 C-8.73546875 118.42609375 -9.6584375 119.0396875 -10.609375 119.671875 C-12.90994736 121.3589614 -14.97680519 123.121897 -17.0625 125.0625 C-19.82418262 127.57796031 -19.82418262 127.57796031 -23.125 127.4375 C-24.1459375 127.004375 -24.1459375 127.004375 -25.1875 126.5625 C-25.1875 125.9025 -25.1875 125.2425 -25.1875 124.5625 C-25.7546875 124.294375 -26.321875 124.02625 -26.90625 123.75 C-30.10468788 122.08505973 -32.99717951 120.03532225 -35.96875 118 C-46.81307873 110.97409688 -61.19981952 111.34850003 -73.62890625 113.02734375 C-90.95638822 116.84526351 -103.83189882 128.98710708 -113.1875 143.5625 C-117.15353197 150.70791296 -119.64105818 157.57255058 -121.1875 165.5625 C-121.8475 166.5525 -122.5075 167.5425 -123.1875 168.5625 C-126.23306592 167.92743805 -128.61406556 166.91340635 -131.3125 165.375 C-132.10140625 164.92640625 -132.8903125 164.4778125 -133.703125 164.015625 C-136.1694835 162.57303795 -138.61794309 161.10419049 -141.0625 159.625 C-149.98391492 154.23579276 -159.24402641 149.47004068 -168.5 144.6875 C-176.51767092 140.52194447 -184.43139431 136.25451306 -192.23339844 131.69628906 C-194.59891794 130.32379124 -196.97477396 128.97007581 -199.3515625 127.6171875 C-200.27308105 127.09253906 -201.19459961 126.56789062 -202.14404297 126.02734375 C-203.94753615 125.00091938 -205.7512325 123.97485186 -207.55517578 122.94921875 C-210.10410641 121.49519294 -212.64665705 120.0306072 -215.1875 118.5625 C-216.10982422 118.0355957 -217.03214844 117.50869141 -217.98242188 116.96582031 C-218.88025391 116.44342773 -219.77808594 115.92103516 -220.703125 115.3828125 C-221.92177246 114.67922607 -221.92177246 114.67922607 -223.16503906 113.96142578 C-225.1875 112.5625 -225.1875 112.5625 -227.1875 109.5625 C-227.6875 106.1875 -227.6875 106.1875 -227.1875 102.5625 C-222.0475021 97.37849527 -215.54255467 94.22504509 -209.1875 90.75 C-206.93598343 89.50429384 -204.6846798 88.25820273 -202.43359375 87.01171875 C-201.3544873 86.41665527 -200.27538086 85.8215918 -199.16357422 85.20849609 C-191.70094319 81.0810918 -184.29491586 76.85522855 -177 72.4375 C-173.79984056 70.50231055 -170.57010028 68.65508704 -167.28125 66.875 C-161.08710983 63.51049922 -154.90957608 60.11643472 -148.73657227 56.71337891 C-147.50115752 56.03256412 -146.26548265 55.35222111 -145.02954102 54.67236328 C-137.66618904 50.62188467 -130.33393501 46.52372897 -123.04380798 42.34277344 C-118.52868011 39.75347127 -113.99258825 37.20566247 -109.4375 34.6875 C-108.68637939 34.27097168 -107.93525879 33.85444336 -107.16137695 33.42529297 C-104.09816825 31.72673497 -101.03381756 30.03025571 -97.96826172 28.3359375 C-86.56260555 22.03194211 -75.22723522 15.6128008 -63.92236328 9.12988281 C-59.22182359 6.43594737 -54.51691059 3.74966796 -49.8125 1.0625 C-48.11716799 0.09378415 -46.42185442 -0.87496399 -44.7265625 -1.84375 C-43.9521582 -2.28460937 -43.17775391 -2.72546875 -42.37988281 -3.1796875 C-40.97231314 -3.98723749 -39.57006941 -4.80418367 -38.17480469 -5.6328125 C-24.45286174 -13.73626474 -12.69341393 -7.07486444 0 0 Z " fill="#498431" transform="translate(270.1875,23.4375)"/>
<path d="M0 0 C0 0.66 0 1.32 0 2 C0.74330566 2.25507324 1.48661133 2.51014648 2.25244141 2.77294922 C5.1528212 4.06824945 6.74397218 5.38354776 8.9609375 7.6328125 C10.03988281 8.71949219 10.03988281 8.71949219 11.140625 9.828125 C11.87796875 10.58609375 12.6153125 11.3440625 13.375 12.125 C14.10460937 12.85976562 14.83421875 13.59453125 15.5859375 14.3515625 C18.91876252 17.7319993 22.14489234 21.15704909 25.24291992 24.75390625 C29.0819365 29.16189593 33.17566044 33.26828469 37.33984375 37.3671875 C38.91223675 38.92695494 40.48449871 40.48685448 42.05664062 42.046875 C44.5128712 44.47813031 46.9706879 46.90774271 49.4309082 49.33496094 C51.82152835 51.69556539 54.20604474 54.06219803 56.58984375 56.4296875 C57.33346664 57.15985077 58.07708954 57.89001404 58.84324646 58.64230347 C59.86044518 59.65443405 59.86044518 59.65443405 60.89819336 60.68701172 C61.49885117 61.2802121 62.09950897 61.87341248 62.71836853 62.48458862 C64 64 64 64 64 66 C64.66 66 65.32 66 66 66 C66 66.66 66 67.32 66 68 C66.66 68 67.32 68 68 68 C68 68.66 68 69.32 68 70 C68.66 70 69.32 70 70 70 C70 70.66 70 71.32 70 72 C70.61875 72.268125 71.2375 72.53625 71.875 72.8125 C74 74 74 74 76 77 C75.625 79.6875 75.625 79.6875 75 82 C74.34 82 73.68 82 73 82 C73 82.66 73 83.32 73 84 C71.42578125 85.515625 71.42578125 85.515625 69.3125 87.25 C66.64650867 89.50075728 64.28989909 91.70049545 62.125 94.4375 C61.42375 95.283125 60.7225 96.12875 60 97 C59.34 97 58.68 97 58 97 C57.74025391 97.58426758 57.48050781 98.16853516 57.21289062 98.77050781 C55.915344 101.15561164 54.50658878 102.75190637 52.59375 104.671875 C51.60181641 105.66767578 51.60181641 105.66767578 50.58984375 106.68359375 C49.90019531 107.36550781 49.21054688 108.04742187 48.5 108.75 C47.81035156 109.44738281 47.12070313 110.14476562 46.41015625 110.86328125 C45.74886719 111.52199219 45.08757812 112.18070312 44.40625 112.859375 C43.80103516 113.46233398 43.19582031 114.06529297 42.57226562 114.68652344 C41 116 41 116 39 116 C38.79093018 116.53214111 38.58186035 117.06428223 38.36645508 117.61254883 C36.45517529 120.9519101 33.83208168 123.49316943 31.13671875 126.19921875 C30.54889114 126.79370316 29.96106354 127.38818756 29.35542297 128.00068665 C28.10638067 129.25984799 26.85461452 130.51631236 25.6003418 131.77026367 C23.72172555 133.65319582 21.85965092 135.55143949 19.99804688 137.45117188 C5.92123091 151.66208393 -8.85047186 163.00509859 -29.6875 163.25 C-44.23305848 163.21171783 -54.65066616 158.24013571 -65.3125 148.3125 C-75.01625324 138.20699902 -77.42869175 127.53349394 -77.21484375 114.01953125 C-76.81895333 103.48786245 -71.99330162 94.71674661 -65 87 C-64.34 87 -63.68 87 -63 87 C-63 86.34 -63 85.68 -63 85 C-61.28515625 83.34375 -61.28515625 83.34375 -59.0625 81.5 C-56.07954821 79.11073001 -56.07954821 79.11073001 -54 76 C-54.495 75.54625 -54.99 75.0925 -55.5 74.625 C-57 73 -57 73 -57 71 C-57.86625 70.62875 -57.86625 70.62875 -58.75 70.25 C-61.32939979 68.81700012 -63.06121592 67.21575324 -65 65 C-65 64.34 -65 63.68 -65 63 C-65.66 63 -66.32 63 -67 63 C-67 62.34 -67 61.68 -67 61 C-67.66 61 -68.32 61 -69 61 C-70.15341698 58.77447742 -71.29781159 56.54504031 -72.4375 54.3125 C-72.76298828 53.68666016 -73.08847656 53.06082031 -73.42382812 52.41601562 C-77.94617575 43.51118679 -78.3885325 32.53292055 -76.375 22.75 C-74.45791099 17.52157544 -71.80563228 12.7995722 -69 8 C-68.34 8 -67.68 8 -67 8 C-67 7.34 -67 6.68 -67 6 C-66.34 6 -65.68 6 -65 6 C-64.34 4.68 -63.68 3.36 -63 2 C-62.34 2 -61.68 2 -61 2 C-61 1.34 -61 0.68 -61 0 C-42.08632568 -14.03178311 -19.15969199 -13.66197968 0 0 Z " fill="#A6C215" transform="translate(159,235)"/>
<path d="M0 0 C1.07507813 -0.01836914 1.07507813 -0.01836914 2.171875 -0.03710938 C13.36795591 -0.06742367 24.58815694 4.01709931 33.12890625 11.33203125 C42.49413895 21.47918091 47.33873157 33.63435803 46.91796875 47.51953125 C46.18159478 54.22544353 43.87791454 60.3012737 40.625 66.1875 C39.965 66.1875 39.305 66.1875 38.625 66.1875 C38.41875 66.89390625 38.2125 67.6003125 38 68.328125 C36.23372944 72.00116491 33.63941535 74.29988657 30.625 76.9375 C30.0784375 77.43121094 29.531875 77.92492187 28.96875 78.43359375 C24.95962733 82.02018634 24.95962733 82.02018634 22.625 83.1875 C22.295 84.1775 21.965 85.1675 21.625 86.1875 C22.17800781 86.42597656 22.73101562 86.66445313 23.30078125 86.91015625 C26.17165315 88.48792955 28.37809811 90.43511706 30.8125 92.625 C31.69292969 93.40746094 32.57335937 94.18992187 33.48046875 94.99609375 C35.625 97.1875 35.625 97.1875 36.625 100.1875 C37.285 100.1875 37.945 100.1875 38.625 100.1875 C39.40331471 101.51648006 40.17217244 102.85099877 40.9375 104.1875 C41.36675781 104.93 41.79601562 105.6725 42.23828125 106.4375 C45.53200026 112.96926953 47.18780716 118.59144729 47.125 125.9375 C47.11927979 126.72318359 47.11355957 127.50886719 47.10766602 128.31835938 C46.74455563 140.2606565 40.96602638 150.20454256 33.04296875 158.9296875 C22.72844778 168.61680452 9.52044662 171.8812747 -4.20703125 171.5 C-14.9459755 170.90408171 -24.31501352 166.7344305 -33.375 161.1875 C-33.375 160.5275 -33.375 159.8675 -33.375 159.1875 C-33.96667969 158.91164063 -34.55835938 158.63578125 -35.16796875 158.3515625 C-41.13271712 155.20555362 -45.45298338 150.06231957 -49.7578125 144.9921875 C-51.41572435 143.04241383 -51.41572435 143.04241383 -53.875 141.1875 C-56.15577069 139.36288345 -57.80938903 137.59227322 -59.6875 135.375 C-62.71824304 131.8226258 -65.97351893 128.79706773 -69.52734375 125.77734375 C-71.93939486 123.70185791 -74.15590911 121.46656632 -76.375 119.1875 C-77.220625 118.3625 -78.06625 117.5375 -78.9375 116.6875 C-81.375 114.1875 -81.375 114.1875 -83.1875 111.8125 C-85.09360581 109.52517302 -86.93007877 107.78946685 -89.1875 105.875 C-92.73070641 102.85768694 -95.69803307 99.6009161 -98.69921875 96.0546875 C-101.04282472 93.44339693 -103.61232097 91.34373729 -106.375 89.1875 C-105.78212728 85.6848704 -104.49986634 83.85719023 -102.125 81.25 C-101.49335938 80.55390625 -100.86171875 79.8578125 -100.2109375 79.140625 C-97.98170903 76.76910535 -95.70698271 74.45811474 -93.375 72.1875 C-92.1375 70.9190625 -92.1375 70.9190625 -90.875 69.625 C-88.375 67.1875 -88.375 67.1875 -85.8125 65.1875 C-83.24938268 63.22726682 -83.24938268 63.22726682 -81.1875 60.4375 C-80.589375 59.695 -79.99125 58.9525 -79.375 58.1875 C-78.715 58.1875 -78.055 58.1875 -77.375 58.1875 C-76.715 56.8675 -76.055 55.5475 -75.375 54.1875 C-74.715 54.1875 -74.055 54.1875 -73.375 54.1875 C-73.11704651 53.60586594 -72.85909302 53.02423187 -72.59332275 52.42497253 C-71.2714667 49.99735915 -69.81784861 48.35673198 -67.88183594 46.38793945 C-67.16638611 45.65650223 -66.45093628 44.925065 -65.71380615 44.17146301 C-64.93684387 43.38913803 -64.15988159 42.60681305 -63.359375 41.80078125 C-62.14825043 40.57611397 -62.14825043 40.57611397 -60.91265869 39.32670593 C-59.19712881 37.59666231 -57.47876737 35.86942261 -55.7578125 34.14477539 C-53.16413301 31.53931082 -50.58971968 28.91581067 -48.015625 26.29101562 C-33.86451922 12.00091539 -21.04620799 0.01872438 0 0 Z " fill="#347107" transform="translate(365.375,225.8125)"/>
<path d="M0 0 C3.42614351 0.43911824 4.27806031 1.57170048 6.43359375 4.2109375 C7.03816406 4.93023437 7.64273438 5.64953125 8.265625 6.390625 C9.62109375 8.3359375 9.62109375 8.3359375 9.62109375 10.3359375 C10.17796875 10.5628125 10.73484375 10.7896875 11.30859375 11.0234375 C14.28268963 12.71143786 16.3411824 14.80270267 18.62109375 17.3359375 C18.62109375 17.9959375 18.62109375 18.6559375 18.62109375 19.3359375 C19.28109375 19.3359375 19.94109375 19.3359375 20.62109375 19.3359375 C20.62109375 19.9959375 20.62109375 20.6559375 20.62109375 21.3359375 C21.28109375 21.3359375 21.94109375 21.3359375 22.62109375 21.3359375 C22.62109375 21.9959375 22.62109375 22.6559375 22.62109375 23.3359375 C23.28109375 23.3359375 23.94109375 23.3359375 24.62109375 23.3359375 C24.62109375 23.9959375 24.62109375 24.6559375 24.62109375 25.3359375 C25.28109375 25.3359375 25.94109375 25.3359375 26.62109375 25.3359375 C26.62109375 25.9959375 26.62109375 26.6559375 26.62109375 27.3359375 C27.28109375 27.3359375 27.94109375 27.3359375 28.62109375 27.3359375 C28.62109375 27.9959375 28.62109375 28.6559375 28.62109375 29.3359375 C29.28109375 29.3359375 29.94109375 29.3359375 30.62109375 29.3359375 C33.24609375 31.7109375 33.24609375 31.7109375 35.62109375 34.3359375 C35.62109375 34.9959375 35.62109375 35.6559375 35.62109375 36.3359375 C36.28109375 36.3359375 36.94109375 36.3359375 37.62109375 36.3359375 C37.62109375 36.9959375 37.62109375 37.6559375 37.62109375 38.3359375 C38.28109375 38.3359375 38.94109375 38.3359375 39.62109375 38.3359375 C40.91040039 39.6574707 40.91040039 39.6574707 42.46875 41.57421875 C45.62779323 45.29232681 48.99019858 48.73707484 52.4921875 52.12890625 C53.02188141 52.64583038 53.55157532 53.16275452 54.09732056 53.69534302 C56.2977051 55.84266766 58.49916049 57.98832386 60.72094727 60.11352539 C73.35833317 72.22801074 81.37169128 83.20857287 81.84741211 101.29663086 C82.00250968 115.06194002 79.62439236 125.74903067 69.99609375 136.1796875 C59.31409215 146.26824457 49.47601681 149.85877367 34.828125 149.5859375 C26.46805152 148.93423871 19.69546958 145.65916717 12.62109375 141.3359375 C12.62109375 140.6759375 12.62109375 140.0159375 12.62109375 139.3359375 C11.73164063 138.94921875 11.73164063 138.94921875 10.82421875 138.5546875 C8.4444841 137.23823855 7.11130583 135.91012968 5.37109375 133.8359375 C4.8503125 133.2275 4.32953125 132.6190625 3.79296875 131.9921875 C2.62109375 130.3359375 2.62109375 130.3359375 2.62109375 128.3359375 C-0.26354128 128.67993146 -1.94937975 128.94019398 -4.1171875 130.9375 C-4.63667969 131.60523438 -5.15617187 132.27296875 -5.69140625 132.9609375 C-12.80839311 141.51972774 -20.24632677 147.15871716 -31.37890625 149.3359375 C-46.44881817 150.32288387 -56.39157545 146.80681567 -68.50390625 138.0859375 C-69.12265625 137.5084375 -69.74140625 136.9309375 -70.37890625 136.3359375 C-70.37890625 135.6759375 -70.37890625 135.0159375 -70.37890625 134.3359375 C-71.03890625 134.3359375 -71.69890625 134.3359375 -72.37890625 134.3359375 C-81.01018275 123.94955464 -83.05815442 112.54552688 -82.37890625 99.3359375 C-81.13863919 86.95098496 -76.51177785 76.67751614 -68.37890625 67.3359375 C-67.74082031 66.56636719 -67.10273438 65.79679687 -66.4453125 65.00390625 C-62.96234928 60.86924513 -62.96234928 60.86924513 -61.37890625 59.3359375 C-60.71890625 59.3359375 -60.05890625 59.3359375 -59.37890625 59.3359375 C-59.37890625 58.6759375 -59.37890625 58.0159375 -59.37890625 57.3359375 C-57.91674805 55.89501953 -57.91674805 55.89501953 -55.890625 54.21875 C-51.42968019 50.42483481 -47.3046777 46.37537883 -43.19140625 42.2109375 C-42.50626953 41.52128906 -41.82113281 40.83164062 -41.11523438 40.12109375 C-39.79176583 38.78870867 -38.46959944 37.4550285 -37.14892578 36.11987305 C-35.64455374 34.60367353 -34.12821698 33.09936038 -32.609375 31.59765625 C-30.59615003 29.55622498 -28.72584021 27.46449359 -26.87890625 25.2734375 C-24.25603068 22.2418021 -21.57294586 19.77349404 -18.37890625 17.3359375 C-15.34309783 14.45990847 -12.55886483 11.42521825 -9.81640625 8.2734375 C-9.21957031 7.59152344 -8.62273437 6.90960938 -8.0078125 6.20703125 C-6.74673354 4.75845374 -5.49777856 3.29931669 -4.25390625 1.8359375 C-2.37890625 0.3359375 -2.37890625 0.3359375 0 0 Z " fill="#6B8E2D" transform="translate(247.37890625,323.6640625)"/>
<path d="M0 0 C4.63451597 3.0962511 7.979753 6.24236225 11.25 10.75 C11.25 11.41 11.25 12.07 11.25 12.75 C11.91 12.75 12.57 12.75 13.25 12.75 C13.889375 13.41 14.52875 14.07 15.1875 14.75 C17.13012332 17.09807292 17.13012332 17.09807292 20.25 16.75 C20.48589844 16.20214844 20.72179687 15.65429688 20.96484375 15.08984375 C25.44096954 6.94030166 32.70380075 0.31323617 41.25 -3.25 C41.82621094 -3.50458984 42.40242188 -3.75917969 42.99609375 -4.02148438 C48.06479985 -6.12594716 52.53064058 -6.79618491 58 -6.75 C59.17526245 -6.74250732 59.17526245 -6.74250732 60.37426758 -6.73486328 C70.72676999 -6.42684792 79.01792709 -2.64643821 86.25 4.75 C86.25 5.41 86.25 6.07 86.25 6.75 C86.91 6.75 87.57 6.75 88.25 6.75 C89.6875 8.76171875 89.6875 8.76171875 91.25 11.4375 C91.765625 12.30761719 92.28125 13.17773438 92.8125 14.07421875 C96.96613097 21.80584162 97.43109808 29.00801467 97.4375 37.625 C97.44974609 38.48480469 97.46199219 39.34460938 97.47460938 40.23046875 C97.51348291 57.30890678 88.75371609 69.20823785 77.14453125 80.93359375 C74.96491089 83.1158867 72.77595892 85.28710825 70.57104492 87.44384766 C69.56134644 88.43263916 69.56134644 88.43263916 68.53125 89.44140625 C67.61956055 90.32614624 67.61956055 90.32614624 66.68945312 91.22875977 C65.14995599 92.70849598 65.14995599 92.70849598 64.25 94.75 C63.59 94.75 62.93 94.75 62.25 94.75 C62.25 95.41 62.25 96.07 62.25 96.75 C61.59 96.75 60.93 96.75 60.25 96.75 C60.25 97.41 60.25 98.07 60.25 98.75 C59.59 98.75 58.93 98.75 58.25 98.75 C58.25 99.41 58.25 100.07 58.25 100.75 C57.59 100.75 56.93 100.75 56.25 100.75 C56.25 101.41 56.25 102.07 56.25 102.75 C54.63161281 104.46358643 52.95328319 106.1207726 51.25 107.75 C50.1874491 108.85411768 49.12494885 109.95828412 48.0625 111.0625 C45.25 113.75 45.25 113.75 43.25 113.75 C43.25 114.41 43.25 115.07 43.25 115.75 C42.59 115.75 41.93 115.75 41.25 115.75 C41.25 116.41 41.25 117.07 41.25 117.75 C40.59 117.75 39.93 117.75 39.25 117.75 C39.25 118.41 39.25 119.07 39.25 119.75 C38.59 119.75 37.93 119.75 37.25 119.75 C37.25 120.41 37.25 121.07 37.25 121.75 C36.59 121.75 35.93 121.75 35.25 121.75 C35.023125 122.306875 34.79625 122.86375 34.5625 123.4375 C32.87449964 126.41159588 30.78323483 128.47008865 28.25 130.75 C27.59 130.75 26.93 130.75 26.25 130.75 C26.023125 131.28625 25.79625 131.8225 25.5625 132.375 C23.81617944 135.53500863 21.6097151 138.0176983 19.25 140.75 C16.36536497 140.40600604 14.6795265 140.14574352 12.51171875 138.1484375 C11.99222656 137.48070312 11.47273438 136.81296875 10.9375 136.125 C8.6448704 133.34144329 6.38615328 130.88186876 3.625 128.5625 C-0.34155217 125.19171456 -4.05347612 121.59849001 -7.75 117.9375 C-8.33861816 117.36169189 -8.92723633 116.78588379 -9.53369141 116.19262695 C-10.97915281 114.75079307 -12.36975509 113.25438279 -13.75 111.75 C-13.75 111.09 -13.75 110.43 -13.75 109.75 C-14.34554687 109.4921875 -14.94109375 109.234375 -15.5546875 108.96875 C-17.9447437 107.64188606 -19.15503112 106.35890657 -20.875 104.25 C-24.5890442 99.83198663 -28.65295815 95.85236816 -32.80859375 91.8515625 C-34.75 89.75 -34.75 89.75 -34.75 87.75 C-36.07 87.09 -37.39 86.43 -38.75 85.75 C-38.75 85.09 -38.75 84.43 -38.75 83.75 C-39.41 83.75 -40.07 83.75 -40.75 83.75 C-40.75 83.09 -40.75 82.43 -40.75 81.75 C-41.41 81.75 -42.07 81.75 -42.75 81.75 C-44.3359375 80.17578125 -44.3359375 80.17578125 -46.125 78.0625 C-46.74246094 77.33417969 -47.35992187 76.60585937 -47.99609375 75.85546875 C-48.57488281 75.16066406 -49.15367187 74.46585937 -49.75 73.75 C-50.554375 72.80125 -51.35875 71.8525 -52.1875 70.875 C-53.75 68.75 -53.75 68.75 -53.75 66.75 C-54.41 66.75 -55.07 66.75 -55.75 66.75 C-63.5387594 53.94318612 -65.12152858 39.60764292 -62.21484375 25.07421875 C-60.57701215 18.76807673 -57.71184502 12.9368166 -53.75 7.75 C-53.09 7.75 -52.43 7.75 -51.75 7.75 C-51.75 7.09 -51.75 6.43 -51.75 5.75 C-51.09 5.75 -50.43 5.75 -49.75 5.75 C-49.75 5.09 -49.75 4.43 -49.75 3.75 C-49.09 3.75 -48.43 3.75 -47.75 3.75 C-47.75 3.09 -47.75 2.43 -47.75 1.75 C-45.80859375 0.3125 -45.80859375 0.3125 -43.1875 -1.25 C-42.34058594 -1.765625 -41.49367187 -2.28125 -40.62109375 -2.8125 C-27.41883873 -9.42260864 -12.29605082 -7.35449276 0 0 Z " fill="#508331" transform="translate(230.75,161.25)"/>
<path d="M0 0 C0.66 0.33 1.32 0.66 2 1 C3.05271661 4.15814982 3.14964382 6.4511424 3.18945312 9.76904297 C3.20617065 10.95392303 3.22288818 12.1388031 3.2401123 13.35958862 C3.25368774 14.64084625 3.26726318 15.92210388 3.28125 17.2421875 C3.30937696 19.25232652 3.33750904 21.26246549 3.36594391 23.27260017 C3.41463178 26.80668376 3.45709413 30.34084227 3.5 33.875 C3.55118245 38.08322864 3.60349977 42.29142145 3.66296387 46.49954224 C3.69958416 49.12047756 3.73202866 51.74147522 3.7598877 54.36251831 C3.77660522 55.5537027 3.79332275 56.74488708 3.81054688 57.97216797 C3.82307495 59.01790985 3.83560303 60.06365173 3.84851074 61.14108276 C3.99247443 63.85797679 4.39126233 66.35228034 5 69 C5.556875 69.04125 6.11375 69.0825 6.6875 69.125 C9.59070621 70.22351046 10.707712 72.02816557 12.5625 74.43359375 C14.97021713 77.0572203 17.8473341 78.39275856 21 80 C20.73828125 81.87890625 20.73828125 81.87890625 20 84 C18.29296875 85.08984375 18.29296875 85.08984375 16.1875 85.9375 C7.61980861 89.90826606 5.21731593 98.68860051 2 107 C0.515 106.505 0.515 106.505 -1 106 C-2.3515625 103.1640625 -2.3515625 103.1640625 -3.625 99.625 C-4.05039062 98.46226562 -4.47578125 97.29953125 -4.9140625 96.1015625 C-5.62435315 94.07289066 -6.32029254 92.03912237 -7 90 C-7.66 90 -8.32 90 -9 90 C-9 89.34 -9 88.68 -9 88 C-9.721875 87.731875 -10.44375 87.46375 -11.1875 87.1875 C-13.97590126 86.01017502 -16.44095724 84.60854116 -19 83 C-18.73828125 81.10546875 -18.73828125 81.10546875 -18 79 C-16.29296875 77.98828125 -16.29296875 77.98828125 -14.1875 77.3125 C-13.50042969 77.08175781 -12.81335938 76.85101563 -12.10546875 76.61328125 C-10.08046446 76.0234377 -8.05055511 75.49305482 -6 75 C-6 74.34 -6 73.68 -6 73 C-5.01 72.505 -5.01 72.505 -4 72 C-3.02003325 66.35101158 -2.81731691 60.74611215 -2.71875 55.0234375 C-2.70070313 54.18305939 -2.68265625 53.34268127 -2.6640625 52.47683716 C-2.62588855 50.69300704 -2.58938383 48.90914052 -2.55444336 47.12524414 C-2.4632423 42.51815924 -2.35672161 37.9114352 -2.25 33.3046875 C-2.22933472 32.40631165 -2.20866943 31.50793579 -2.18737793 30.58233643 C-2.02187027 23.5518235 -1.80711948 16.52596737 -1.5 9.5 C-1.46455078 8.61876465 -1.42910156 7.7375293 -1.39257812 6.82958984 C-1.12350092 1.12350092 -1.12350092 1.12350092 0 0 Z " fill="#386D2A" transform="translate(437,153)"/>
<path d="M0 0 C0 0.66 0 1.32 0 2 C0.74330566 2.25507324 1.48661133 2.51014648 2.25244141 2.77294922 C5.1528212 4.06824945 6.74397218 5.38354776 8.9609375 7.6328125 C10.03988281 8.71949219 10.03988281 8.71949219 11.140625 9.828125 C11.87796875 10.58609375 12.6153125 11.3440625 13.375 12.125 C14.10460937 12.85976562 14.83421875 13.59453125 15.5859375 14.3515625 C20.24642673 19.07863014 24.68644245 23.95573051 29 29 C29.57983643 29.67434082 30.15967285 30.34868164 30.75708008 31.04345703 C32.17409647 32.69331456 33.58746678 34.34630257 35 36 C32.69 35.34 30.38 34.68 28 34 C27.938125 33.21625 27.87625 32.4325 27.8125 31.625 C27.4103125 30.325625 27.4103125 30.325625 27 29 C25.34795544 28.29788106 23.68076231 27.63028587 22 27 C21.6278958 25.67696283 21.29369827 24.34262065 21 23 C19.04531552 21.78674756 17.07406939 21.02917885 14.9375 20.1875 C12.35405516 18.60409833 11.54033899 16.5877695 10 14 C9.113125 13.319375 8.22625 12.63875 7.3125 11.9375 C6.549375 11.298125 5.78625 10.65875 5 10 C5 8.68 5 7.36 5 6 C4.46375 5.87625 3.9275 5.7525 3.375 5.625 C2.59125 5.41875 1.8075 5.2125 1 5 C-0.03125 4.731875 -1.0625 4.46375 -2.125 4.1875 C-5 3 -5 3 -5.890625 1.06640625 C-7.35469125 -1.6606749 -8.78917897 -2.11567159 -11.625 -3.25 C-12.44226563 -3.58515625 -13.25953125 -3.9203125 -14.1015625 -4.265625 C-14.72804687 -4.50796875 -15.35453125 -4.7503125 -16 -5 C-16 -5.66 -16 -6.32 -16 -7 C-26.84056949 -8.29164232 -35.58332053 -8.52705112 -46 -5 C-47.32979042 -4.65280216 -48.66212602 -4.3146142 -50 -4 C-50 -3.34 -50 -2.68 -50 -2 C-51.98 -2 -53.96 -2 -56 -2 C-42.82317912 -17.92199189 -13.9540205 -9.9500318 0 0 Z " fill="#BED15B" transform="translate(159,235)"/>
<path d="M0 0 C31.69488517 26.61370778 31.69488517 26.61370778 33.828125 43.984375 C34.71087501 59.47262526 34.37987672 71.94321161 25 85 C22.77252948 87.31380658 20.59928454 89.09032157 18 91 C18.75 88.0625 18.75 88.0625 20 85 C22.125 84.125 22.125 84.125 24 84 C24 83.01 24 82.02 24 81 C24.66 81 25.32 81 26 81 C26.0825 80.360625 26.165 79.72125 26.25 79.0625 C26.9222117 76.31763556 27.7099492 74.68459717 29.03125 72.25 C31.98859702 65.69826737 31.43075371 58.99037063 31.25 51.9375 C31.22989291 50.58140675 31.21164961 49.22528453 31.1953125 47.86914062 C31.14847313 44.57867514 31.08288862 41.28972165 31 38 C30.34 38 29.68 38 29 38 C28.505 35.525 28.505 35.525 28 33 C26.515 32.505 26.515 32.505 25 32 C24.67 30.02 24.34 28.04 24 26 C23.01 25.67 22.02 25.34 21 25 C21 24.34 21 23.68 21 23 C20.34 23 19.68 23 19 23 C16.875 21.1875 16.875 21.1875 15 19 C15 18.01 15 17.02 15 16 C14.34 16 13.68 16 13 16 C13 15.34 13 14.68 13 14 C12.4225 13.731875 11.845 13.46375 11.25 13.1875 C7.5421173 11.23056191 5.35687262 10.07061787 4 6 C3.01 5.67 2.02 5.34 1 5 C0.67 3.35 0.34 1.7 0 0 Z " fill="#9AB074" transform="translate(295,372)"/>
<path d="M0 0 C0.66 0.33 1.32 0.66 2 1 C0.93071226 2.65499311 -0.15597192 4.29875626 -1.25 5.9375 C-1.85328125 6.85402344 -2.4565625 7.77054688 -3.078125 8.71484375 C-5.1824861 11.21698043 -5.94471872 11.37858686 -9 12 C-10.3045656 14.99615946 -10.3045656 14.99615946 -11 18 C-11.66 18 -12.32 18 -13 18 C-13.144375 19.258125 -13.28875 20.51625 -13.4375 21.8125 C-13.73748686 24.42667123 -14.15813297 26.47439892 -15 29 C-15.25136656 32.07885945 -15.23125601 35.16192753 -15.25 38.25 C-15.270625 39.08402344 -15.29125 39.91804688 -15.3125 40.77734375 C-15.33826795 44.88088976 -15.17808208 48.11093302 -13.421875 51.859375 C-12 55 -12 55 -12.3125 57.4375 C-12.539375 57.953125 -12.76625 58.46875 -13 59 C-13.82011312 57.44148245 -14.63076213 55.87798284 -15.4375 54.3125 C-15.88996094 53.44238281 -16.34242187 52.57226562 -16.80859375 51.67578125 C-20.75852427 42.80462583 -20.31422301 30.03879001 -17 21 C-15.11999499 17.25999003 -13.11225373 13.61341519 -11 10 C-10.34 10 -9.68 10 -9 10 C-9 9.34 -9 8.68 -9 8 C-8.34 8 -7.68 8 -7 8 C-6.34 6.68 -5.68 5.36 -5 4 C-4.34 4 -3.68 4 -3 4 C-3 3.34 -3 2.68 -3 2 C-2.01 1.34 -1.02 0.68 0 0 Z " fill="#C4D569" transform="translate(101,233)"/>
<path d="M0 0 C0.82757813 0.33451172 0.82757813 0.33451172 1.671875 0.67578125 C0.40649131 1.51736661 -0.86566279 2.34877873 -2.140625 3.17578125 C-3.20216797 3.871875 -3.20216797 3.871875 -4.28515625 4.58203125 C-6.328125 5.67578125 -6.328125 5.67578125 -9.328125 5.67578125 C-9.555 6.56265625 -9.781875 7.44953125 -10.015625 8.36328125 C-11.51202346 12.13990595 -13.25304237 14.06196101 -16.328125 16.67578125 C-16.988125 16.67578125 -17.648125 16.67578125 -18.328125 16.67578125 C-18.658125 17.99578125 -18.988125 19.31578125 -19.328125 20.67578125 C-19.988125 20.67578125 -20.648125 20.67578125 -21.328125 20.67578125 C-21.328125 21.33578125 -21.328125 21.99578125 -21.328125 22.67578125 C-21.988125 22.67578125 -22.648125 22.67578125 -23.328125 22.67578125 C-24.44827299 30.7108586 -24.44254305 38.63507202 -24.390625 46.73828125 C-24.38559814 48.09439938 -24.38103734 49.45051933 -24.37695312 50.80664062 C-24.36524579 54.09640119 -24.34884711 57.38606719 -24.328125 60.67578125 C-29.59759835 52.77157123 -28.8356157 39.49794496 -27.09375 30.54296875 C-25.26217775 23.68391756 -21.94087597 17.7400418 -18.328125 11.67578125 C-17.668125 11.67578125 -17.008125 11.67578125 -16.328125 11.67578125 C-16.328125 11.01578125 -16.328125 10.35578125 -16.328125 9.67578125 C-15.668125 9.67578125 -15.008125 9.67578125 -14.328125 9.67578125 C-14.328125 9.01578125 -14.328125 8.35578125 -14.328125 7.67578125 C-13.668125 7.67578125 -13.008125 7.67578125 -12.328125 7.67578125 C-12.328125 7.01578125 -12.328125 6.35578125 -12.328125 5.67578125 C-10.28125 4.1328125 -10.28125 4.1328125 -7.578125 2.48828125 C-6.69640625 1.93785156 -5.8146875 1.38742188 -4.90625 0.8203125 C-2.328125 -0.32421875 -2.328125 -0.32421875 0 0 Z " fill="#82A46C" transform="translate(195.328125,157.32421875)"/>
<path d="M0 0 C3.99353689 2.05073516 6.21127442 3.82630698 8 8 C8 10.5625 8 10.5625 7 13 C2.78378378 17 2.78378378 17 0 17 C0.10771204 27.04910718 0.2203874 37.09814541 0.33933926 47.1471262 C0.39442302 51.81363721 0.44781909 56.48015462 0.49731445 61.14672852 C0.5451734 65.65309294 0.59752274 70.15938518 0.65294075 74.66566277 C0.67326714 76.38195935 0.69199565 78.09827565 0.70907402 79.81460762 C0.73333455 82.22486592 0.76335751 84.6349905 0.79467773 87.04516602 C0.8004332 87.74935669 0.80618866 88.45354736 0.81211853 89.17907715 C0.8763535 93.54893829 1.30196802 97.69744082 2 102 C1.34 102 0.68 102 0 102 C-1.35270554 99.29458891 -1.16224064 97.1368748 -1.20532227 94.10766602 C-1.22526749 92.86779434 -1.24521271 91.62792267 -1.26576233 90.35047913 C-1.28278197 88.98495655 -1.29965937 87.6194322 -1.31640625 86.25390625 C-1.33701477 84.84495997 -1.35801215 83.43601933 -1.37937927 82.02708435 C-1.42341669 79.0586979 -1.46429496 76.09029096 -1.50268555 73.12182617 C-1.55117073 69.37444224 -1.60488992 65.62715947 -1.66062355 61.87987709 C-1.77558753 54.1462368 -1.87341523 46.41256648 -1.95733643 38.67852783 C-1.99578456 35.36346233 -2.04526598 32.04876175 -2.09716797 28.73388672 C-2.11629975 26.99838039 -2.13476282 25.26286648 -2.15234375 23.52734375 C-2.16745499 22.76668106 -2.18256622 22.00601837 -2.19813538 21.2223053 C-2.20880302 19.4803171 -2.115469 17.73818975 -2 16 C-1.34 15.34 -0.68 14.68 0 14 C0.99 14 1.98 14 3 14 C3 13.34 3 12.68 3 12 C3.66 12 4.32 12 5 12 C4.80140021 6.99150873 4.80140021 6.99150873 1.9375 3.1875 C1.298125 2.795625 0.65875 2.40375 0 2 C0 1.34 0 0.68 0 0 Z " fill="#82A173" transform="translate(442,120)"/>
<path d="M0 0 C0.66 0 1.32 0 2 0 C1.04096106 2.13939456 0.26384385 3.75779414 -1.4765625 5.35546875 C-3.30137094 7.32532607 -3.81440374 8.93509853 -4.5625 11.5 C-5.45512475 14.5258466 -6.20843526 16.3126529 -8 19 C-8.46400057 22.7131743 -8.37034654 26.44844226 -8.375 30.1875 C-8.39949219 31.20392578 -8.42398438 32.22035156 -8.44921875 33.26757812 C-8.47173288 39.07997687 -7.96184121 43.30660505 -4.96557617 48.34179688 C-4 50 -4 50 -2.9375 53.3125 C-1.9989128 56.00311663 -1.17634442 57.21935456 1 59 C0.67 59.66 0.34 60.32 0 61 C-9.66125362 50.66470543 -12.43458381 40.90583823 -12.21484375 27.01953125 C-11.81895333 16.48786245 -6.99330162 7.71674661 0 0 Z " fill="#BED05D" transform="translate(94,322)"/>
<path d="M0 0 C0.495 0.99 0.495 0.99 1 2 C-0.25922263 5.77766788 -2.12450332 7.25230318 -5 10 C-5.49113281 10.51175781 -5.98226562 11.02351562 -6.48828125 11.55078125 C-8.80598586 13.96430828 -10.77337333 15.86824031 -13.6875 17.5625 C-16.51642315 19.3210198 -17.30868622 21.15859285 -19 24 C-20.92332427 25.77108224 -22.96079559 27.35977037 -25 29 C-25.33 29.66 -25.66 30.32 -26 31 C-26.66 31 -27.32 31 -28 31 C-28.2475 31.556875 -28.495 32.11375 -28.75 32.6875 C-30.23870529 35.44160479 -31.88409972 37.69174514 -34 40 C-34.99 40 -35.98 40 -37 40 C-37 40.66 -37 41.32 -37 42 C-37.5775 42.2475 -38.155 42.495 -38.75 42.75 C-41.3002997 44.16683317 -43.01785701 45.87627537 -45 48 C-45.66 47.67 -46.32 47.34 -47 47 C-42.48746518 42.2367688 -42.48746518 42.2367688 -39.8125 40.9375 C-37.47139069 39.72658139 -36.95928874 38.39822186 -36 36 C-35.34 36 -34.68 36 -34 36 C-33.73526886 35.40995178 -33.47053772 34.81990356 -33.19778442 34.2119751 C-31.95890455 31.92410812 -30.67673262 30.43518354 -28.83544922 28.60839844 C-28.19493622 27.9680365 -27.55442322 27.32767456 -26.89450073 26.66790771 C-26.20486237 25.98859192 -25.515224 25.30927612 -24.8046875 24.609375 C-24.09724396 23.90476135 -23.38980042 23.20014771 -22.66091919 22.47418213 C-20.40360138 20.2280461 -18.13942367 17.98896991 -15.875 15.75 C-14.34199047 14.22702283 -12.80943285 12.70359061 -11.27734375 11.1796875 C-7.52345427 7.44783185 -3.76391086 3.72174649 0 0 Z " fill="#89A872" transform="translate(326,244)"/>
<path d="M0 0 C0.66 0.33 1.32 0.66 2 1 C2.02543017 8.54393796 2.04290056 16.08786479 2.05493164 23.63183594 C2.0599492 26.19629326 2.06676472 28.76074775 2.07543945 31.32519531 C2.08761803 35.01888737 2.0932542 38.71254147 2.09765625 42.40625 C2.10281754 43.5461438 2.10797882 44.6860376 2.11329651 45.86047363 C2.11370284 51.67334659 1.88353309 57.25244911 1 63 C-0.485 63.495 -0.485 63.495 -2 64 C-2 64.66 -2 65.32 -2 66 C-4.375 67.6875 -4.375 67.6875 -7 69 C-7.66 68.67 -8.32 68.34 -9 68 C-8.50628906 67.48050781 -8.01257813 66.96101563 -7.50390625 66.42578125 C-6.86324219 65.72839844 -6.22257812 65.03101563 -5.5625 64.3125 C-4.60537109 63.28576172 -4.60537109 63.28576172 -3.62890625 62.23828125 C-0.79559638 58.34502813 -0.87023393 54.07882278 -0.79467773 49.38354492 C-0.77473251 48.28278122 -0.75478729 47.18201752 -0.73423767 46.04789734 C-0.71752518 44.8706459 -0.70081268 43.69339447 -0.68359375 42.48046875 C-0.66281265 41.26676102 -0.64203156 40.05305328 -0.62062073 38.80256653 C-0.55531084 34.93093449 -0.49632637 31.05923545 -0.4375 27.1875 C-0.39429715 24.56053998 -0.35068229 21.93358671 -0.30664062 19.30664062 C-0.19964842 12.87116429 -0.09784764 6.43562151 0 0 Z " fill="#7C9A6F" transform="translate(433,162)"/>
<path d="M0 0 C1.66520566 0.34055687 3.33155945 0.67566217 5 1 C5 1.66 5 2.32 5 3 C7.475 3.495 7.475 3.495 10 4 C10.495 5.485 10.495 5.485 11 7 C8.64070256 6.08249544 6.3310753 5.17296995 4.0859375 4 C-7.03455606 -1.33117294 -23.68416087 -0.41078627 -35.2421875 2.9375 C-39.28512164 4.49511769 -42.99576567 6.49529779 -46.72265625 8.6953125 C-49 10 -49 10 -52 11 C-51.6452187 8.42783554 -51.1957002 7.20322713 -49.375 5.3125 C-46.29564007 3.61074846 -43.47476635 3.33411215 -40 3 C-40 2.34 -40 1.68 -40 1 C-38.02 1 -36.04 1 -34 1 C-34 0.34 -34 -0.32 -34 -1 C-22.73468895 -2.87755184 -11.07817021 -2.80537767 0 0 Z " fill="#719A59" transform="translate(226,135)"/>
<path d="M0 0 C0.71671875 -0.01224609 1.4334375 -0.02449219 2.171875 -0.03710938 C9.1320655 -0.05595466 15.28147408 1.33897222 21.625 4.3125 C22.388125 4.66570312 23.15125 5.01890625 23.9375 5.3828125 C24.494375 5.64835938 25.05125 5.91390625 25.625 6.1875 C25.625 6.5175 25.625 6.8475 25.625 7.1875 C18.19642857 6.1875 18.19642857 6.1875 14.625 5.1875 C14.625 4.5275 14.625 3.8675 14.625 3.1875 C5.385 3.1875 -3.855 3.1875 -13.375 3.1875 C-13.375 3.8475 -13.375 4.5075 -13.375 5.1875 C-14.468125 5.47625 -15.56125 5.765 -16.6875 6.0625 C-20.41513845 7.00643204 -20.41513845 7.00643204 -23.375 9.1875 C-25.5625 8.8125 -25.5625 8.8125 -27.375 8.1875 C-18.26100081 2.26226975 -10.877189 0.00967721 0 0 Z " fill="#61893F" transform="translate(365.375,225.8125)"/>
<path d="M0 0 C2.5625 2.1875 2.5625 2.1875 5 5 C4.8125 7.8125 4.8125 7.8125 4 10 C3.34 10 2.68 10 2 10 C2 10.66 2 11.32 2 12 C0.42578125 13.515625 0.42578125 13.515625 -1.6875 15.25 C-4.35349133 17.50075728 -6.71010091 19.70049545 -8.875 22.4375 C-9.57625 23.283125 -10.2775 24.12875 -11 25 C-11.66 25 -12.32 25 -13 25 C-13.20625 25.556875 -13.4125 26.11375 -13.625 26.6875 C-15.55000774 29.92501302 -18.03850902 31.68231141 -21 34 C-20.01 31.03 -19.02 28.06 -18 25 C-16.02 24.67 -14.04 24.34 -12 24 C-11.67 22.35 -11.34 20.7 -11 19 C-10.34 19 -9.68 19 -9 19 C-9 18.01 -9 17.02 -9 16 C-8.01 16 -7.02 16 -6 16 C-5.938125 15.236875 -5.87625 14.47375 -5.8125 13.6875 C-5 11 -5 11 -2.5625 9.1875 C0 8 0 8 2 8 C1.67 7.4225 1.34 6.845 1 6.25 C0 4 0 4 0 0 Z " fill="#B8CC51" transform="translate(230,307)"/>
<path d="M0 0 C8.55589074 7.57807465 12.16540511 17.63118548 13.28515625 28.859375 C13.49618081 35.35526143 12.21688313 40.91676712 10 47 C9.67 47 9.34 47 9 47 C9.01571045 45.87356079 9.01571045 45.87356079 9.03173828 44.72436523 C9.07351891 41.29544471 9.09939622 37.86657793 9.125 34.4375 C9.14175781 33.25607422 9.15851563 32.07464844 9.17578125 30.85742188 C9.24574239 22.22999148 9.24574239 22.22999148 7 14 C6.34 13.67 5.68 13.34 5 13 C3.96898053 10.68020619 2.97063483 8.34570085 2 6 C1.34 5.01 0.68 4.02 0 3 C0 2.01 0 1.02 0 0 Z " fill="#85A66B" transform="translate(399,239)"/>
<path d="M0 0 C1.32 0 2.64 0 4 0 C4.33 0.66 4.66 1.32 5 2 C15.30862557 7.11758371 27.83058484 6.16213667 39 6 C39 5.34 39 4.68 39 4 C44.94 3.505 44.94 3.505 51 3 C41.80945471 9.89290897 30.06979503 9.82207023 19 9 C11.90553462 7.87707235 5.65739214 5.50646136 0 1 C0 0.67 0 0.34 0 0 Z " fill="#C5D769" transform="translate(102,389)"/>
<path d="M0 0 C5.43107789 4.54378717 10.53837003 9.32409718 15.5625 14.3125 C16.65594727 15.37500977 16.65594727 15.37500977 17.77148438 16.45898438 C29.60027344 28.20259764 29.60027344 28.20259764 30.375 35.5625 C30.25125 36.366875 30.1275 37.17125 30 38 C29.34 37.34 28.68 36.68 28 36 C28 35.01 28 34.02 28 33 C26.515 32.505 26.515 32.505 25 32 C24.67 30.02 24.34 28.04 24 26 C23.01 25.67 22.02 25.34 21 25 C21 24.34 21 23.68 21 23 C20.34 23 19.68 23 19 23 C16.875 21.1875 16.875 21.1875 15 19 C15 18.01 15 17.02 15 16 C14.34 16 13.68 16 13 16 C13 15.34 13 14.68 13 14 C12.4225 13.731875 11.845 13.46375 11.25 13.1875 C7.5421173 11.23056191 5.35687262 10.07061787 4 6 C3.01 5.67 2.02 5.34 1 5 C0.67 3.35 0.34 1.7 0 0 Z " fill="#8AA45F" transform="translate(295,372)"/>
<path d="M0 0 C1.30507963 3.93472578 0.26468074 5.92704564 -1.27490234 9.71240234 C-2.58703655 13.85203113 -2.39191284 18.00832411 -2.3125 22.3125 C-2.31733398 23.65151367 -2.31733398 23.65151367 -2.32226562 25.01757812 C-2.36481641 30.3165441 -2.36481641 30.3165441 0 35 C0.44429438 37.04869074 0.81294195 39.11454293 1.125 41.1875 C1.29257813 42.27417969 1.46015625 43.36085938 1.6328125 44.48046875 C1.81457031 45.72763672 1.81457031 45.72763672 2 47 C2.66 47 3.32 47 4 47 C4.33 48.65 4.66 50.3 5 52 C-0.88874294 47.09271422 -3.13805368 40.9505873 -4.75 33.5625 C-5.58333073 21.68753707 -4.58975658 11.05714085 0 0 Z " fill="#93AB69" transform="translate(170,404)"/>
<path d="M0 0 C1.12172607 -0.01498535 1.12172607 -0.01498535 2.26611328 -0.03027344 C7.69257322 0.05348669 11.82515458 1.30813508 16.8125 3.4375 C16.4825 4.0975 16.1525 4.7575 15.8125 5.4375 C15.26972412 5.27668945 14.72694824 5.11587891 14.16772461 4.95019531 C9.33192726 3.89751837 4.30400035 4.20986642 -0.625 4.1875 C-2.32366211 4.1565625 -2.32366211 4.1565625 -4.05664062 4.125 C-5.15041016 4.11984375 -6.24417969 4.1146875 -7.37109375 4.109375 C-8.36681396 4.1000293 -9.36253418 4.09068359 -10.38842773 4.08105469 C-13.64690853 4.49600296 -15.45783736 5.66417192 -18.1875 7.4375 C-21.5 8.125 -21.5 8.125 -24.1875 8.4375 C-17.5685475 1.24430048 -9.39199275 0.07335986 0 0 Z " fill="#77985C" transform="translate(289.1875,154.5625)"/>
<path d="M0 0 C0.33 0.66 0.66 1.32 1 2 C0.67 2.99 0.34 3.98 0 5 C-0.66 5 -1.32 5 -2 5 C-2 5.66 -2 6.32 -2 7 C-4.23935929 9.48817699 -6.15487055 11.58950855 -9.1875 13.0625 C-11.60970685 14.31536561 -12.06018575 15.46973085 -13 18 C-13.37668344 19.65740715 -13.72057545 21.32345271 -14 23 C-13.01 23.66 -12.02 24.32 -11 25 C-11.33 26.32 -11.66 27.64 -12 29 C-14.31 27.02 -16.62 25.04 -19 23 C-18.00770944 19.03083775 -17.38042449 17.95024863 -14.75 15.0625 C-14.11835938 14.36640625 -13.48671875 13.6703125 -12.8359375 12.953125 C-10.60670903 10.58160535 -8.33198271 8.27061474 -6 6 C-5.0925 5.0925 -4.185 4.185 -3.25 3.25 C-2.16666667 2.16666667 -1.08333333 1.08333333 0 0 Z " fill="#5C843D" transform="translate(278,292)"/>
<path d="M0 0 C0.99 0.33 1.98 0.66 3 1 C3.84375 2.70703125 3.84375 2.70703125 4.5 4.8125 C5.36159631 7.38817152 5.91692793 8.90154421 7.6875 11 C9.79293991 14.20828939 9.18869727 17.22605454 9 21 C10.32 21 11.64 21 13 21 C13 20.34 13 19.68 13 19 C16.71973879 16.15549386 19.37390802 15.6772494 24 16 C20.46662525 18.90983803 16.99464632 21.75301145 13 24 C10.3125 23.60546875 10.3125 23.60546875 8 23 C7.75765625 22.17757812 7.5153125 21.35515625 7.265625 20.5078125 C5.16625622 13.51529956 2.8524042 6.72135672 0 0 Z " fill="#7FA46F" transform="translate(340,166)"/>
<path d="M0 0 C5.03550445 5.03550445 4.43231693 12.38006655 4.44042969 19.02441406 C4.22767697 28.55186759 0.67288874 36.43614835 -5 44 C-5.33 42.68 -5.66 41.36 -6 40 C-4.515 39.505 -4.515 39.505 -3 39 C-3 37.68 -3 36.36 -3 35 C-2.34 35 -1.68 35 -1 35 C0.77285084 28.24100617 1.19269646 21.88841147 1.1875 14.9375 C1.18814453 14.07987061 1.18878906 13.22224121 1.18945312 12.33862305 C1.54687375 8.35099177 1.54687375 8.35099177 0 5 C-0.04063832 3.33382885 -0.042721 1.66611905 0 0 Z " fill="#84A76C" transform="translate(408,335)"/>
<path d="M0 0 C0.66 0.66 1.32 1.32 2 2 C-0.77463037 1.56190047 -3.53237855 1.105255 -6.2734375 0.48828125 C-16.40100369 -1.76406391 -24.19260104 -1.32075088 -34 2 C-35.32979042 2.34719784 -36.66212602 2.6853858 -38 3 C-38 3.66 -38 4.32 -38 5 C-39.98 5 -41.96 5 -44 5 C-34.87378214 -6.02751325 -12.02148788 -5.73453908 0 0 Z " fill="#CEDC7E" transform="translate(147,228)"/>
<path d="M0 0 C4.52134218 3.71754802 8.77415761 7.64047364 12.9375 11.75 C13.43419189 12.23380127 13.93088379 12.71760254 14.44262695 13.21606445 C15.66847329 14.43848364 16.83934827 15.71551743 18 17 C18 17.66 18 18.32 18 19 C18.66 19 19.32 19 20 19 C20 19.66 20 20.32 20 21 C20.66 21 21.32 21 22 21 C22 21.66 22 22.32 22 23 C22.66 23 23.32 23 24 23 C23.67 23.66 23.34 24.32 23 25 C19.76509224 24.44225728 18.02144994 23.62788492 16 21 C16 20.01 16 19.02 16 18 C15.34 18 14.68 18 14 18 C12.97895449 17.02149805 11.9793879 16.02019573 11 15 C10.34 14.67 9.68 14.34 9 14 C9 12.68 9 11.36 9 10 C8.236875 9.95875 7.47375 9.9175 6.6875 9.875 C4 9 4 9 2.25 6.125 C1.44220156 4.10550391 0.68781558 2.06344675 0 0 Z " fill="#C7D770" transform="translate(205,282)"/>
<path d="M0 0 C0.82757813 0.33451172 0.82757813 0.33451172 1.671875 0.67578125 C0.40649131 1.51736661 -0.86566279 2.34877873 -2.140625 3.17578125 C-3.20216797 3.871875 -3.20216797 3.871875 -4.28515625 4.58203125 C-6.328125 5.67578125 -6.328125 5.67578125 -9.328125 5.67578125 C-9.555 6.56265625 -9.781875 7.44953125 -10.015625 8.36328125 C-11.51202346 12.13990595 -13.25304237 14.06196101 -16.328125 16.67578125 C-16.988125 16.67578125 -17.648125 16.67578125 -18.328125 16.67578125 C-18.658125 17.99578125 -18.988125 19.31578125 -19.328125 20.67578125 C-20.58354057 16.90953454 -19.69874458 15.30389191 -18.328125 11.67578125 C-17.668125 11.67578125 -17.008125 11.67578125 -16.328125 11.67578125 C-16.328125 11.01578125 -16.328125 10.35578125 -16.328125 9.67578125 C-15.668125 9.67578125 -15.008125 9.67578125 -14.328125 9.67578125 C-14.328125 9.01578125 -14.328125 8.35578125 -14.328125 7.67578125 C-13.668125 7.67578125 -13.008125 7.67578125 -12.328125 7.67578125 C-12.328125 7.01578125 -12.328125 6.35578125 -12.328125 5.67578125 C-10.28125 4.1328125 -10.28125 4.1328125 -7.578125 2.48828125 C-6.69640625 1.93785156 -5.8146875 1.38742188 -4.90625 0.8203125 C-2.328125 -0.32421875 -2.328125 -0.32421875 0 0 Z " fill="#6C9151" transform="translate(195.328125,157.32421875)"/>
<path d="M0 0 C0.66 0 1.32 0 2 0 C1.67644531 1.12277344 1.35289063 2.24554688 1.01953125 3.40234375 C-0.16297869 8.15224886 -0.33195965 12.68591168 -0.3125 17.5625 C-0.32861328 18.37396484 -0.34472656 19.18542969 -0.36132812 20.02148438 C-0.36457163 24.04018235 -0.13305018 27.17220808 1.58203125 30.83984375 C3 34 3 34 2.6875 36.4375 C2.460625 36.953125 2.23375 37.46875 2 38 C-4.08049209 29.35701482 -4.08788702 20.1583836 -3 10 C-2.29138537 6.51329392 -1.38321435 3.27690066 0 0 Z " fill="#AEC632" transform="translate(86,254)"/>
<path d="M0 0 C1.98 0 3.96 0 6 0 C5.67 1.32 5.34 2.64 5 4 C4.319375 4.08378906 3.63875 4.16757813 2.9375 4.25390625 C-0.7669591 5.19479945 -3.75963597 6.98151103 -7 8.9375 C-10.90156904 11.26760373 -14.70983737 13.44806617 -19 15 C-18.67 14.01 -18.34 13.02 -18 12 C-17.01 12 -16.02 12 -15 12 C-15 11.34 -15 10.68 -15 10 C-14.01 10 -13.02 10 -12 10 C-11.67 9.01 -11.34 8.02 -11 7 C-8.75 5.68359375 -8.75 5.68359375 -6 4.4375 C-2.29032372 2.97635423 -2.29032372 2.97635423 0 0 Z " fill="#7FA26E" transform="translate(428,142)"/>
<path d="M0 0 C0.33 0 0.66 0 1 0 C1.00257812 0.94359375 1.00515625 1.8871875 1.0078125 2.859375 C1.25762557 11.15316879 2.28781582 16.97275221 6.52734375 24.31640625 C8.07825032 27.14259409 8.99852002 29.94398168 10 33 C11.49886871 34.83689476 11.49886871 34.83689476 13 36 C12.67 36.66 12.34 37.32 12 38 C3.42400665 28.82568153 -0.20819284 20.2282911 -0.0625 7.6875 C-0.05798828 6.94693359 -0.05347656 6.20636719 -0.04882812 5.44335938 C-0.03712175 3.62887101 -0.01918898 1.81442466 0 0 Z " fill="#C6D776" transform="translate(82,345)"/>
<path d="M0 0 C3.44953104 0.46406247 4.2879145 1.66874932 6.42578125 4.3515625 C7.03035156 5.0940625 7.63492188 5.8365625 8.2578125 6.6015625 C8.70511719 7.1790625 9.15242188 7.7565625 9.61328125 8.3515625 C9.28328125 9.0115625 8.95328125 9.6715625 8.61328125 10.3515625 C4.79643899 8.79655269 2.42132393 6.31560755 -0.38671875 3.3515625 C-0.38671875 4.0115625 -0.38671875 4.6715625 -0.38671875 5.3515625 C-1.37671875 5.6815625 -2.36671875 6.0115625 -3.38671875 6.3515625 C-4.77248798 7.97489217 -6.11313143 9.63880715 -7.38671875 11.3515625 C-8.70671875 11.0215625 -10.02671875 10.6915625 -11.38671875 10.3515625 C-9.73678935 8.33498212 -8.07251831 6.33770566 -6.38671875 4.3515625 C-5.72671875 3.5678125 -5.06671875 2.7840625 -4.38671875 1.9765625 C-2.38671875 0.3515625 -2.38671875 0.3515625 0 0 Z " fill="#98AD72" transform="translate(247.38671875,323.6484375)"/>
<path d="M0 0 C0.99 0.33 1.98 0.66 3 1 C-4.26 8.26 -11.52 15.52 -19 23 C-19.33 22.01 -19.66 21.02 -20 20 C-19.67 19.34 -19.34 18.68 -19 18 C-18.01 18 -17.02 18 -16 18 C-16 17.01 -16 16.02 -16 15 C-15.01 15 -14.02 15 -13 15 C-13 14.01 -13 13.02 -13 12 C-12.34 12 -11.68 12 -11 12 C-10.67 10.68 -10.34 9.36 -10 8 C-9.360625 7.896875 -8.72125 7.79375 -8.0625 7.6875 C-7.0415625 7.3471875 -7.0415625 7.3471875 -6 7 C-5.67 6.01 -5.34 5.02 -5 4 C-3.68352881 3.30062468 -2.34977849 2.63270867 -1 2 C-0.67 1.34 -0.34 0.68 0 0 Z " fill="#BED45E" transform="translate(191,356)"/>
<path d="M0 0 C0.33 0.99 0.66 1.98 1 3 C-0.75 5.6875 -0.75 5.6875 -3 8 C-3.99 8 -4.98 8 -6 8 C-6.33 9.32 -6.66 10.64 -7 12 C-7.66 12 -8.32 12 -9 12 C-9 12.66 -9 13.32 -9 14 C-9.804375 14.474375 -10.60875 14.94875 -11.4375 15.4375 C-14.2918076 16.79983672 -14.2918076 16.79983672 -15 20 C-15.66 20 -16.32 20 -17 20 C-17 20.66 -17 21.32 -17 22 C-18.32 21.67 -19.64 21.34 -21 21 C-14 14 -7 7 0 0 Z " fill="#91A563" transform="translate(220,350)"/>
<path d="M0 0 C3.99353689 2.05073516 6.21127442 3.82630698 8 8 C8 10.5625 8 10.5625 7 13 C2.89189189 17 2.89189189 17 -1 17 C-1 22.94 -1 28.88 -1 35 C-1.33 35 -1.66 35 -2 35 C-2.05791844 31.87507749 -2.09356746 28.75029234 -2.125 25.625 C-2.14175781 24.73554688 -2.15851563 23.84609375 -2.17578125 22.9296875 C-2.18222656 22.07890625 -2.18867188 21.228125 -2.1953125 20.3515625 C-2.20578613 19.56604004 -2.21625977 18.78051758 -2.22705078 17.97119141 C-2 16 -2 16 0 14 C0.99 14 1.98 14 3 14 C3 13.34 3 12.68 3 12 C3.66 12 4.32 12 5 12 C4.80140021 6.99150873 4.80140021 6.99150873 1.9375 3.1875 C1.298125 2.795625 0.65875 2.40375 0 2 C0 1.34 0 0.68 0 0 Z " fill="#5D8548" transform="translate(442,120)"/>
<path d="M0 0 C3.17538332 0.34021964 4.02276865 1.02466604 6.25 3.4375 C8 6 8 6 8 8 C8.99 8 9.98 8 11 8 C11 8.66 11 9.32 11 10 C12.98 10 14.96 10 17 10 C17.33 8.68 17.66 7.36 18 6 C19.32 6.33 20.64 6.66 22 7 C20.02 9.31 18.04 11.62 16 14 C12.9856221 13.65874967 11.37697083 13.34954052 9.12109375 11.2578125 C8.56550781 10.55398438 8.00992188 9.85015625 7.4375 9.125 C5.63839822 6.87300654 4.11227116 5.0827678 1.78515625 3.3671875 C1.19605469 2.91601562 0.60695312 2.46484375 0 2 C0 1.34 0 0.68 0 0 Z " fill="#7C9F67" transform="translate(234,288)"/>
<path d="M0 0 C1.98 0 3.96 0 6 0 C6 0.66 6 1.32 6 2 C6.78375 2.144375 7.5675 2.28875 8.375 2.4375 C11 3 11 3 13 4 C13 4.66 13 5.32 13 6 C14.65 6.33 16.3 6.66 18 7 C18 7.66 18 8.32 18 9 C19.32 9 20.64 9 22 9 C22 9.99 22 10.98 22 12 C16.73877829 10.48968084 12.32767414 8.09625809 7.625 5.375 C6.88894531 4.95476562 6.15289062 4.53453125 5.39453125 4.1015625 C3.5936235 3.07247236 1.79642682 2.03689244 0 1 C0 0.67 0 0.34 0 0 Z " fill="#77A364" transform="translate(78,154)"/>
<path d="M0 0 C5.54050113 0.56825653 10.03715966 2.62886517 15 5 C15 5.66 15 6.32 15 7 C17.475 7.495 17.475 7.495 20 8 C20.33 9.32 20.66 10.64 21 12 C13.17889726 9.94181507 6.06924374 5.26001124 0 0 Z " fill="#779D60" transform="translate(57,142)"/>
<path d="M0 0 C2.78211944 0.37596209 4.5879284 0.67318459 6.8125 2.4375 C8 4 8 4 8 6 C8.66 6 9.32 6 10 6 C10.33 8.64 10.66 11.28 11 14 C9.73299277 14.9841125 8.4612381 15.96211497 7.1875 16.9375 C6.47980469 17.48277344 5.77210937 18.02804687 5.04296875 18.58984375 C3 20 3 20 0 21 C0 20.34 0 19.68 0 19 C1.71484375 17.34375 1.71484375 17.34375 3.9375 15.5 C6.92045179 13.11073001 6.92045179 13.11073001 9 10 C8.505 9.54625 8.01 9.0925 7.5 8.625 C6 7 6 7 6 5 C5.38125 4.731875 4.7625 4.46375 4.125 4.1875 C2 3 2 3 0 0 Z " fill="#C3D36B" transform="translate(96,301)"/>
<path d="M0 0 C4.13639336 1.59092052 7.23213248 4.60474918 10 8 C10 8.66 10 9.32 10 10 C10.66 10 11.32 10 12 10 C16 15.41176471 16 15.41176471 16 18 C15.01 18 14.02 18 13 18 C13 16.68 13 15.36 13 14 C12.34 14 11.68 14 11 14 C11 13.34 11 12.68 11 12 C9.68 11.34 8.36 10.68 7 10 C7 9.34 7 8.68 7 8 C6.01 8 5.02 8 4 8 C3.566875 7.0409375 3.566875 7.0409375 3.125 6.0625 C2.17176549 3.84793921 2.17176549 3.84793921 0 3 C0 2.01 0 1.02 0 0 Z " fill="#6F9351" transform="translate(392,316)"/>
<path d="M0 0 C0.99 0.33 1.98 0.66 3 1 C2.8777745 6.98904953 1.15308577 9.48963936 -3.11328125 13.6171875 C-5.10087296 15.07393173 -6.5910023 15.58520569 -9 16 C-9 16.66 -9 17.32 -9 18 C-10.65 18.66 -12.3 19.32 -14 20 C-10.47183874 14.16496407 -6.45092862 9.72923903 0 7 C0 4.69 0 2.38 0 0 Z " fill="#ABC42C" transform="translate(106,308)"/>
<path d="M0 0 C-0.33 1.32 -0.66 2.64 -1 4 C-1 3.34 -1 2.68 -1 2 C-3.91726267 2.34350021 -5.58365205 2.61574936 -7.7734375 4.63671875 C-8.56621094 5.65185547 -8.56621094 5.65185547 -9.375 6.6875 C-12.61038643 10.63396037 -16.04982797 13.77536977 -20 17 C-20.33 16.01 -20.66 15.02 -21 14 C-20.21625 13.7525 -19.4325 13.505 -18.625 13.25 C-15.56058543 11.79075497 -15.38274239 10.94985044 -14 8 C-11.875 6.75 -11.875 6.75 -10 6 C-10 5.01 -10 4.02 -10 3 C-9.34 3 -8.68 3 -8 3 C-8 2.34 -8 1.68 -8 1 C-5.29120665 -0.35439668 -2.99066732 -0.06501451 0 0 Z " fill="#8AA05E" transform="translate(251,450)"/>
<path d="M0 0 C0.70640625 0.00902344 1.4128125 0.01804688 2.140625 0.02734375 C2.85734375 0.03121094 3.5740625 0.03507813 4.3125 0.0390625 C9.91706343 0.12978385 15.21648723 0.81699896 20.640625 2.27734375 C20.640625 2.93734375 20.640625 3.59734375 20.640625 4.27734375 C19.5371875 4.12394531 18.43375 3.97054687 17.296875 3.8125 C12.2554909 3.18232699 7.21376021 2.93974291 2.140625 2.71484375 C1.2228125 2.67166016 0.305 2.62847656 -0.640625 2.58398438 C-2.88009561 2.47900919 -5.11965592 2.37685127 -7.359375 2.27734375 C-4.87473249 -0.20729876 -3.39506436 0.01973875 0 0 Z " fill="#739C5D" transform="translate(285.359375,132.72265625)"/>
<path d="M0 0 C2.5 1.375 2.5 1.375 5 3 C5 3.66 5 4.32 5 5 C5.66 5 6.32 5 7 5 C7 5.66 7 6.32 7 7 C7.66 7 8.32 7 9 7 C10.69140625 8.6796875 10.69140625 8.6796875 12.5625 10.875 C13.18253906 11.59429687 13.80257813 12.31359375 14.44140625 13.0546875 C16 15 16 15 17 17 C14.2403488 16.91883379 12.5110903 16.49637304 10.5078125 14.55078125 C9.48402093 13.32806644 8.47794163 12.09034485 7.48828125 10.83984375 C5.87739649 8.768403 5.87739649 8.768403 3.1875 6.3125 C1.07005808 4.0740614 0.334008 3.00607197 0 0 Z " fill="#89A25C" transform="translate(278,355)"/>
<path d="M0 0 C0.99 0.33 1.98 0.66 3 1 C2.3503125 1.928125 2.3503125 1.928125 1.6875 2.875 C-0.57549056 7.06572326 -1.74666735 11.4222247 -3 16 C-4.32 16 -5.64 16 -7 16 C-8.0625 14.1875 -8.0625 14.1875 -9 12 C-8.67 11.01 -8.34 10.02 -8 9 C-6.68 10.32 -5.36 11.64 -4 13 C-3.67 10.03 -3.34 7.06 -3 4 C-2.34 4 -1.68 4 -1 4 C-0.67 2.68 -0.34 1.36 0 0 Z " fill="#608658" transform="translate(443,243)"/>
<path d="M0 0 C0.66 0.66 1.32 1.32 2 2 C1.01 2.33 0.02 2.66 -1 3 C-1 2.34 -1 1.68 -1 1 C-1.78375 0.855625 -2.5675 0.71125 -3.375 0.5625 C-6 0 -6 0 -8 -1 C-10.01896864 -1.0962762 -12.0412429 -1.12981825 -14.0625 -1.125 C-15.14660156 -1.12757812 -16.23070312 -1.13015625 -17.34765625 -1.1328125 C-19.92243398 -1.30118564 -19.92243398 -1.30118564 -21 0 C-22.66617115 0.04063832 -24.33388095 0.042721 -26 0 C-19.37123587 -7.62307875 -7.73440733 -4.00610134 0 0 Z " fill="#789867" transform="translate(260,18)"/>
<path d="M0 0 C5.26122171 1.51031916 9.67232586 3.90374191 14.375 6.625 C15.47908203 7.25535156 15.47908203 7.25535156 16.60546875 7.8984375 C18.4063765 8.92752764 20.20357318 9.96310756 22 11 C18.59068103 12.13643966 17.99664544 11.86747764 14.8125 10.5625 C14.09707031 10.27503906 13.38164062 9.98757812 12.64453125 9.69140625 C12.10183594 9.46324219 11.55914062 9.23507813 11 9 C11 8.34 11 7.68 11 7 C9.35 7 7.7 7 6 7 C6 6.34 6 5.68 6 5 C5.01 5 4.02 5 3 5 C3 4.34 3 3.68 3 3 C2.01 2.67 1.02 2.34 0 2 C0 1.34 0 0.68 0 0 Z " fill="#6F955D" transform="translate(382,87)"/>
<path d="M0 0 C1.98 0.66 3.96 1.32 6 2 C6 2.66 6 3.32 6 4 C7.32 4 8.64 4 10 4 C10.33 5.32 10.66 6.64 11 8 C11.66 8 12.32 8 13 8 C13 8.99 13 9.98 13 11 C13.99 11.33 14.98 11.66 16 12 C16.33 13.65 16.66 15.3 17 17 C11.33333333 11.33333333 5.66666667 5.66666667 0 0 Z " fill="#7EA569" transform="translate(320,144)"/>
<path d="M0 0 C0 0.66 0 1.32 0 2 C-0.66 2 -1.32 2 -2 2 C-2.04125 2.61875 -2.0825 3.2375 -2.125 3.875 C-3 6 -3 6 -5.75 7.25 C-8.65847762 7.92118714 -11.03627984 8.17433648 -14 8 C-14 8.66 -14 9.32 -14 10 C-15.32 9.67 -16.64 9.34 -18 9 C-15.37785672 7.49480613 -12.75255792 5.99568681 -10.125 4.5 C-9.37863281 4.07074219 -8.63226563 3.64148438 -7.86328125 3.19921875 C-7.14785156 2.79316406 -6.43242188 2.38710937 -5.6953125 1.96875 C-5.03547363 1.59169922 -4.37563477 1.21464844 -3.69580078 0.82617188 C-2 0 -2 0 0 0 Z " fill="#65924D" transform="translate(67,112)"/>
<path d="M0 0 C0.33 0.66 0.66 1.32 1 2 C0.0625 4.125 0.0625 4.125 -1 6 C-1.66 6 -2.32 6 -3 6 C-3.23460937 6.73605469 -3.46921875 7.47210938 -3.7109375 8.23046875 C-5.21472659 11.46133682 -6.91297673 13.02665181 -9.625 15.3125 C-10.44226563 16.00988281 -11.25953125 16.70726562 -12.1015625 17.42578125 C-13.04128906 18.20501953 -13.04128906 18.20501953 -14 19 C-14.33 18.01 -14.66 17.02 -15 16 C-14.34 16 -13.68 16 -13 16 C-13 15.34 -13 14.68 -13 14 C-12.01 14 -11.02 14 -10 14 C-10 13.01 -10 12.02 -10 11 C-8.68 10.67 -7.36 10.34 -6 10 C-5.9071875 9.195625 -5.9071875 9.195625 -5.8125 8.375 C-4.61972618 4.88843038 -2.43802834 2.75059607 0 0 Z " fill="#6D934E" transform="translate(407,286)"/>
<path d="M0 0 C-3.66706709 3.09709224 -7.41382634 5.51329599 -11.625 7.8125 C-12.75164062 8.43769531 -13.87828125 9.06289062 -15.0390625 9.70703125 C-18 11 -18 11 -21 10 C-19.875 8 -19.875 8 -18 6 C-14.8125 5.75 -14.8125 5.75 -12 6 C-12 5.34 -12 4.68 -12 4 C-11.01 4 -10.02 4 -9 4 C-9 3.34 -9 2.68 -9 2 C-5.86501708 0.14223235 -3.62528568 -0.20140476 0 0 Z " fill="#779D62" transform="translate(398,163)"/>
<path d="M0 0 C-2.04912029 2.04912029 -3.20941909 2.60188499 -5.875 3.5625 C-6.55304688 3.81128906 -7.23109375 4.06007813 -7.9296875 4.31640625 C-12.51343817 5.82990883 -16.37989548 6.10759356 -21.25 6.0625 C-22.51328125 6.05347656 -23.7765625 6.04445313 -25.078125 6.03515625 C-26.04234375 6.02355469 -27.0065625 6.01195312 -28 6 C-28 5.67 -28 5.34 -28 5 C-27.01 4.89042969 -26.02 4.78085937 -25 4.66796875 C-16.93928761 3.71880915 -7.74899862 -0.72646862 0 0 Z " fill="#96A86D" transform="translate(230,467)"/>
<path d="M0 0 C0.33 0 0.66 0 1 0 C0.51098901 6.35714286 0.51098901 6.35714286 -1.9375 9.4375 C-4 11 -4 11 -6 11 C-6.33 11.99 -6.66 12.98 -7 14 C-7.66 14 -8.32 14 -9 14 C-7.34966761 8.71893635 -3.90667286 3.90667286 0 0 Z " fill="#8DA55B" transform="translate(180,390)"/>
<path d="M0 0 C-9.17275334 5.28199678 -18.78951389 4.37738963 -29 4 C-29 3.67 -29 3.34 -29 3 C-20.585 2.505 -20.585 2.505 -12 2 C-12 1.34 -12 0.68 -12 0 C-3.96428571 -1.20535714 -3.96428571 -1.20535714 0 0 Z " fill="#BFD254" transform="translate(153,393)"/>
<path d="M0 0 C0.33 0.66 0.66 1.32 1 2 C-0.25922263 5.77766788 -2.12450332 7.25230318 -5 10 C-6.10676164 11.10156558 -7.21094673 12.2057261 -8.3125 13.3125 C-9.199375 14.199375 -10.08625 15.08625 -11 16 C-11.66 15.67 -12.32 15.34 -13 15 C-9.54122788 9.13512553 -4.88678132 4.69882819 0 0 Z " fill="#719758" transform="translate(326,244)"/>
<path d="M0 0 C2.9375 0.75 2.9375 0.75 6 2 C6.69140625 4.078125 6.69140625 4.078125 7 6 C6.38511719 6.33773437 5.77023437 6.67546875 5.13671875 7.0234375 C4.32847656 7.46945313 3.52023437 7.91546875 2.6875 8.375 C1.88699219 8.81585938 1.08648437 9.25671875 0.26171875 9.7109375 C-1.53527943 10.73513335 -3.27900708 11.85267138 -5 13 C-4.67 11.35 -4.34 9.7 -4 8 C-2.68 8 -1.36 8 0 8 C0 7.34 0 6.68 0 6 C1.5 4.375 1.5 4.375 3 3 C2.01 2.67 1.02 2.34 0 2 C0 1.34 0 0.68 0 0 Z " fill="#7D9975" transform="translate(451,230)"/>
<path d="M0 0 C2.64 0.33 5.28 0.66 8 1 C8.33 1.99 8.66 2.98 9 4 C10.32 4 11.64 4 13 4 C13 4.66 13 5.32 13 6 C13.66 6 14.32 6 15 6 C15 6.66 15 7.32 15 8 C16.65 8 18.3 8 20 8 C20 8.99 20 9.98 20 11 C15.08558588 9.56347895 10.99761642 7.45840385 6.625 4.875 C5.98433594 4.50246094 5.34367187 4.12992188 4.68359375 3.74609375 C3.11951523 2.83565998 1.55934466 1.91851809 0 1 C0 0.67 0 0.34 0 0 Z " fill="#77A163" transform="translate(100,166)"/>
<path d="M0 0 C2.475 0.495 2.475 0.495 5 1 C5 1.99 5 2.98 5 4 C5.66 4 6.32 4 7 4 C7 4.66 7 5.32 7 6 C7.928125 6.4640625 7.928125 6.4640625 8.875 6.9375 C10.25 7.625 11.625 8.3125 13 9 C13 10.65 13 12.3 13 14 C11 12.625 11 12.625 9 11 C9 10.34 9 9.68 9 9 C7.68 8.34 6.36 7.68 5 7 C5 6.34 5 5.68 5 5 C4.34 5 3.68 5 3 5 C3 4.34 3 3.68 3 3 C2.34 3 1.68 3 1 3 C0.67 2.01 0.34 1.02 0 0 Z " fill="#89A871" transform="translate(187,240)"/>
<path d="M0 0 C2.54425853 1.2449341 5.08534361 2.49573888 7.625 3.75 C8.33785156 4.09804688 9.05070312 4.44609375 9.78515625 4.8046875 C14.08963907 6.93718358 18.06441288 9.2438475 22 12 C20.68 12.33 19.36 12.66 18 13 C18 12.34 18 11.68 18 11 C17.01 11 16.02 11 15 11 C15 10.34 15 9.68 15 9 C13.68 9 12.36 9 11 9 C11 8.34 11 7.68 11 7 C9.35 6.67 7.7 6.34 6 6 C6 5.34 6 4.68 6 4 C3.03 3.505 3.03 3.505 0 3 C0 2.01 0 1.02 0 0 Z " fill="#7E9F6F" transform="translate(295,38)"/>
<path d="M0 0 C0.66 0.33 1.32 0.66 2 1 C0.27427512 2.44163007 -1.4557347 3.87813165 -3.1875 5.3125 C-4.63189453 6.51326172 -4.63189453 6.51326172 -6.10546875 7.73828125 C-8.67167214 9.74345232 -11.09480327 11.52984 -14 13 C-14.66 12.67 -15.32 12.34 -16 12 C-14.75 10 -14.75 10 -13 8 C-11.68 8 -10.36 8 -9 8 C-9 7.01 -9 6.02 -9 5 C-8.195625 4.71125 -7.39125 4.4225 -6.5625 4.125 C-3.8673532 3.26737432 -3.8673532 3.26737432 -3 1 C-2.01 0.67 -1.02 0.34 0 0 Z " fill="#BACB52" transform="translate(169,379)"/>
<path d="M0 0 C0.33 0.66 0.66 1.32 1 2 C-0.28965176 3.37562854 -1.62689293 4.70766393 -3 6 C-3.66 6 -4.32 6 -5 6 C-5.20625 6.556875 -5.4125 7.11375 -5.625 7.6875 C-7.55000774 10.92501302 -10.03850902 12.68231141 -13 15 C-12.01 12.03 -11.02 9.06 -10 6 C-8.02 5.67 -6.04 5.34 -4 5 C-4 4.01 -4 3.02 -4 2 C-2.68 1.34 -1.36 0.68 0 0 Z " fill="#C2D564" transform="translate(222,326)"/>
<path d="M0 0 C-0.680625 0.53625 -1.36125 1.0725 -2.0625 1.625 C-3.65486381 2.91244308 -5.23354195 4.22290223 -6.71484375 5.63671875 C-8.42286803 7.24009384 -10.04231522 8.71122802 -12 10 C-14.9375 9.875 -14.9375 9.875 -17 9 C-17 8.34 -17 7.68 -17 7 C-15.906875 6.690625 -14.81375 6.38125 -13.6875 6.0625 C-11.44592006 5.41662103 -9.2130649 4.7376883 -7 4 C-7 3.01 -7 2.02 -7 1 C-4.53721199 -0.231394 -2.7204945 -0.07159196 0 0 Z " fill="#82A873" transform="translate(262,141)"/>
<path d="M0 0 C0.66 0.33 1.32 0.66 2 1 C-0.53036888 4.79555331 -2.78074764 5.4455386 -7 7 C-7.99 7 -8.98 7 -10 7 C-10 7.66 -10 8.32 -10 9 C-12.25 10.6875 -12.25 10.6875 -15 12 C-17.171875 11.58203125 -17.171875 11.58203125 -19 11 C-17.87980469 10.37351562 -16.75960937 9.74703125 -15.60546875 9.1015625 C-14.13277713 8.27610477 -12.66012282 7.45058046 -11.1875 6.625 C-10.44951172 6.2125 -9.71152344 5.8 -8.95117188 5.375 C-8.23896484 4.97539063 -7.52675781 4.57578125 -6.79296875 4.1640625 C-6.1383667 3.79748535 -5.48376465 3.4309082 -4.80932617 3.05322266 C-3.16823694 2.09793201 -1.5799656 1.0533104 0 0 Z " fill="#789C5F" transform="translate(86,100)"/>
<path d="M0 0 C1 2 1 2 0.29296875 4.13671875 C-0.07183594 4.97847656 -0.43664062 5.82023438 -0.8125 6.6875 C-2.52029293 10.75902017 -3.88643683 14.73134117 -5 19 C-5.33 19 -5.66 19 -6 19 C-6.27090296 11.14381426 -5.37382635 6.09033653 0 0 Z " fill="#7EA572" transform="translate(153,171)"/>
<path d="M0 0 C5.59032906 2.25992026 10.77195171 5.00068885 16 8 C15.01 8.66 14.02 9.32 13 10 C11 9 9 8 7 7 C7 6.34 7 5.68 7 5 C5.68 5 4.36 5 3 5 C3 4.34 3 3.68 3 3 C2.01 2.67 1.02 2.34 0 2 C0 1.34 0 0.68 0 0 Z " fill="#6E965C" transform="translate(350,69)"/>
<path d="M0 0 C0.6640625 1.75 0.6640625 1.75 1 4 C-1.54208927 8.893044 -5.52696833 12.84256588 -10 16 C-9.25 13.0625 -9.25 13.0625 -8 10 C-5.875 9.125 -5.875 9.125 -4 9 C-4 8.01 -4 7.02 -4 6 C-3.34 6 -2.68 6 -2 6 C-1.855625 5.195625 -1.71125 4.39125 -1.5625 3.5625 C-1 1 -1 1 0 0 Z " fill="#8BA962" transform="translate(323,447)"/>
<path d="M0 0 C4.13621084 3.3810038 7.81316569 6.66590534 11 11 C7.62537285 10.45276317 5.91765 9.9451 3 8 C3 7.01 3 6.02 3 5 C2.01 5 1.02 5 0 5 C0 3.35 0 1.7 0 0 Z " fill="#C5D771" transform="translate(194,271)"/>
<path d="M0 0 C8.80088496 8.3119469 8.80088496 8.3119469 9.25 14.375 C9.1675 15.24125 9.085 16.1075 9 17 C5.27023241 13.78468312 3.81244211 10.53110528 2 6 C1.34 5.01 0.68 4.02 0 3 C0 2.01 0 1.02 0 0 Z " fill="#6C9552" transform="translate(399,239)"/>
<path d="M0 0 C1.32 0.33 2.64 0.66 4 1 C2.73452987 2.62918007 1.46242272 4.25320642 0.1875 5.875 C-0.52019531 6.77992188 -1.22789062 7.68484375 -1.95703125 8.6171875 C-4 11 -4 11 -7 13 C-6.52354792 8.71193127 -5.34097516 6.73352513 -2 4 C-1.34 4 -0.68 4 0 4 C0 2.68 0 1.36 0 0 Z " fill="#86A26E" transform="translate(316,227)"/>
<path d="M0 0 C0 0.66 0 1.32 0 2 C-0.99 2 -1.98 2 -3 2 C-3 2.66 -3 3.32 -3 4 C-3.66 4 -4.32 4 -5 4 C-5.33 4.99 -5.66 5.98 -6 7 C-9.41557141 8.80266269 -12.16865501 9.218934 -16 9 C-11.97806144 5.49702126 -5.60566856 0 0 0 Z " fill="#749861" transform="translate(186,45)"/>
<path d="M0 0 C0.66 0.33 1.32 0.66 2 1 C-0.625 5.875 -0.625 5.875 -4 7 C-6.65971553 7.41192535 -9.32519801 7.69305551 -12 8 C-9.72254211 5.51017465 -7.37664762 3.89631003 -4.4375 2.25 C-3.65246094 1.80140625 -2.86742187 1.3528125 -2.05859375 0.890625 C-1.37925781 0.59671875 -0.69992188 0.3028125 0 0 Z " fill="#6B8F58" transform="translate(202,35)"/>
<path d="M0 0 C4.32111299 3.53545608 5.06994182 8.72967032 6 14 C6.66 14 7.32 14 8 14 C8.33 15.65 8.66 17.3 9 19 C4.04235581 14.86862984 1.79713511 10.17451448 0 4 C0 2.68 0 1.36 0 0 Z " fill="#99AB74" transform="translate(166,437)"/>
<path d="M0 0 C4.91741794 0.43388982 7.5589194 2.5589194 11 6 C11.875 8.8125 11.875 8.8125 12 11 C12.66 11 13.32 11 14 11 C13.67 11.66 13.34 12.32 13 13 C8.66666667 8.66666667 4.33333333 4.33333333 0 0 Z " fill="#678F4A" transform="translate(273,328)"/>
<path d="M0 0 C4.49324849 1.65770333 8.61186146 3.84982162 12.8125 6.125 C13.50537109 6.49753906 14.19824219 6.87007812 14.91210938 7.25390625 C16.60934836 8.16690377 18.30485138 9.08312716 20 10 C19.01 10.66 18.02 11.32 17 12 C17 11.34 17 10.68 17 10 C14.03 9.01 11.06 8.02 8 7 C8 6.34 8 5.68 8 5 C7.05125 4.9175 6.1025 4.835 5.125 4.75 C2 4 2 4 0.625 1.9375 C0.41875 1.298125 0.2125 0.65875 0 0 Z " fill="#79986A" transform="translate(318,51)"/>
<path d="M0 0 C1.41623216 -0.05447047 2.83308191 -0.09300508 4.25 -0.125 C5.03890625 -0.14820313 5.8278125 -0.17140625 6.640625 -0.1953125 C9.24749432 0.02048794 10.68894085 0.82669305 13 2 C15.58532701 2.45064632 15.58532701 2.45064632 18.25 2.625 C19.14203125 2.69976562 20.0340625 2.77453125 20.953125 2.8515625 C21.96632813 2.92503906 21.96632813 2.92503906 23 3 C23 3.33 23 3.66 23 4 C14.74447081 4.34937193 7.7629761 3.94397288 0 1 C0 0.67 0 0.34 0 0 Z " fill="#95B271" transform="translate(269,469)"/>
<path d="M0 0 C0 3.93169105 -1.39419615 5.16427228 -4 8 C-4.66 8 -5.32 8 -6 8 C-6 8.66 -6 9.32 -6 10 C-6.66 10 -7.32 10 -8 10 C-8.33 11.32 -8.66 12.64 -9 14 C-10.32 13.67 -11.64 13.34 -13 13 C-11.625 11 -11.625 11 -10 9 C-9.34 9 -8.68 9 -8 9 C-8 8.34 -8 7.68 -8 7 C-6.25 5.2734375 -6.25 5.2734375 -4 3.375 C-3.2575 2.74335938 -2.515 2.11171875 -1.75 1.4609375 C-1.1725 0.97882813 -0.595 0.49671875 0 0 Z " fill="#9CAF73" transform="translate(196,374)"/>
<path d="M0 0 C1.32 0 2.64 0 4 0 C5.25664978 2.90600261 6 4.79604584 6 8 C7.32 7.67 8.64 7.34 10 7 C9.67 8.65 9.34 10.3 9 12 C5.0570536 10.53403275 3.98165412 8.62691725 2.25 4.875 C1.82203125 3.96492187 1.3940625 3.05484375 0.953125 2.1171875 C0.63859375 1.41851562 0.3240625 0.71984375 0 0 Z " fill="#577F4D" transform="translate(430,244)"/>
<path d="M0 0 C1.98 0 3.96 0 6 0 C5.67 1.32 5.34 2.64 5 4 C4.21625 4.144375 3.4325 4.28875 2.625 4.4375 C0.03578982 4.87798925 0.03578982 4.87798925 -2 6 C-3.99960012 6.039992 -6.00047242 6.04346799 -8 6 C-5 4 -5 4 -2.875 3 C-0.82955462 2.14139842 -0.82955462 2.14139842 0 0 Z " fill="#739C61" transform="translate(428,142)"/>
<path d="M0 0 C5.53455721 2.2948164 9.00415551 5.68496083 13 10 C11 11 11 11 8.4375 10.375 C7.633125 9.92125 6.82875 9.4675 6 9 C5.5 6.5 5.5 6.5 5 4 C2.52363988 2.62533375 2.52363988 2.62533375 0 2 C0 1.34 0 0.68 0 0 Z " fill="#BDD059" transform="translate(181,260)"/>
<path d="M0 0 C0.33 0.66 0.66 1.32 1 2 C1.66 2 2.32 2 3 2 C3 2.99 3 3.98 3 5 C3.99 5.33 4.98 5.66 6 6 C6.33 7.65 6.66 9.3 7 11 C7.66 11 8.32 11 9 11 C9.33 12.65 9.66 14.3 10 16 C8.62437146 14.71034824 7.29233607 13.37310707 6 12 C6 11.34 6 10.68 6 10 C5.34 10 4.68 10 4 10 C0 3.375 0 3.375 0 0 Z " fill="#8BA774" transform="translate(171,218)"/>
<path d="M0 0 C-1.95519384 1.17192047 -3.9142539 2.3373929 -5.875 3.5 C-6.96554687 4.1496875 -8.05609375 4.799375 -9.1796875 5.46875 C-12 7 -12 7 -14 7 C-13.67 5.68 -13.34 4.36 -13 3 C-11.68 3 -10.36 3 -9 3 C-9 2.34 -9 1.68 -9 1 C-5.47051709 -0.66670026 -3.71727674 -1.13583456 0 0 Z " fill="#78A463" transform="translate(378,175)"/>
<path d="M0 0 C0.55171875 0.22300781 1.1034375 0.44601563 1.671875 0.67578125 C0.40649131 1.51736661 -0.86566279 2.34877873 -2.140625 3.17578125 C-3.20216797 3.871875 -3.20216797 3.871875 -4.28515625 4.58203125 C-6.328125 5.67578125 -6.328125 5.67578125 -9.328125 5.67578125 C-9.328125 6.33578125 -9.328125 6.99578125 -9.328125 7.67578125 C-10.318125 7.67578125 -11.308125 7.67578125 -12.328125 7.67578125 C-12.328125 7.01578125 -12.328125 6.35578125 -12.328125 5.67578125 C-10.28125 4.1328125 -10.28125 4.1328125 -7.578125 2.48828125 C-6.69640625 1.93785156 -5.8146875 1.38742188 -4.90625 0.8203125 C-2.328125 -0.32421875 -2.328125 -0.32421875 0 0 Z " fill="#809D6A" transform="translate(195.328125,157.32421875)"/>
<path d="M0 0 C3.80635497 3.20760251 7.54563567 6.40746109 11 10 C10.67 10.66 10.34 11.32 10 12 C8.68 11.34 7.36 10.68 6 10 C6 9.34 6 8.68 6 8 C5.38125 7.79375 4.7625 7.5875 4.125 7.375 C1.15346355 5.45224112 0.86975341 3.33405473 0 0 Z " fill="#CAD878" transform="translate(174,250)"/>
<path d="M0 0 C6.29785459 0.94592282 10.96066973 2.02158136 16 6 C15.67 6.66 15.34 7.32 15 8 C14.33613281 7.66226563 13.67226562 7.32453125 12.98828125 6.9765625 C12.10527344 6.53054687 11.22226563 6.08453125 10.3125 5.625 C9.44238281 5.18414062 8.57226562 4.74328125 7.67578125 4.2890625 C5.15227201 3.07335732 2.61262468 2.00739042 0 1 C0 0.67 0 0.34 0 0 Z " fill="#C4D663" transform="translate(143,229)"/>
<path d="M0 0 C2.97 0.33 5.94 0.66 9 1 C9 1.99 9 2.98 9 4 C9.99 3.67 10.98 3.34 12 3 C12.33 4.32 12.66 5.64 13 7 C8.50202887 5.31326082 4.27113698 3.18326108 0 1 C0 0.67 0 0.34 0 0 Z " fill="#77A161" transform="translate(307,137)"/>
<path d="M0 0 C1.98 0 3.96 0 6 0 C6.33 1.65 6.66 3.3 7 5 C8.32 5.33 9.64 5.66 11 6 C9.02 6.99 9.02 6.99 7 8 C7 7.34 7 6.68 7 6 C6.401875 5.731875 5.80375 5.46375 5.1875 5.1875 C3.01680046 4.00912025 1.61265143 2.85454914 0 1 C0 0.67 0 0.34 0 0 Z " fill="#658C46" transform="translate(325,379)"/>
<path d="M0 0 C0.99 0.33 1.98 0.66 3 1 C-0.96 4.96 -4.92 8.92 -9 13 C-9 10 -9 10 -7.5625 8.5 C-7.046875 8.005 -6.53125 7.51 -6 7 C-5.67 6.01 -5.34 5.02 -5 4 C-3.68352881 3.30062468 -2.34977849 2.63270867 -1 2 C-0.67 1.34 -0.34 0.68 0 0 Z " fill="#C7D66F" transform="translate(191,356)"/>
<path d="M0 0 C0.66 0.33 1.32 0.66 2 1 C-1.625 6.75 -1.625 6.75 -5 9 C-6.32 8.67 -7.64 8.34 -9 8 C-6.03 5.36 -3.06 2.72 0 0 Z " fill="#7A9B5A" transform="translate(336,235)"/>
<path d="M0 0 C3.12290635 0.48578543 5.99580359 0.9986012 9 2 C9 2.66 9 3.32 9 4 C9.99 4 10.98 4 12 4 C12 4.99 12 5.98 12 7 C8.80862651 6.36747553 6.48762632 5.24396936 3.75 3.5 C3.04359375 3.0565625 2.3371875 2.613125 1.609375 2.15625 C1.07828125 1.7746875 0.5471875 1.393125 0 1 C0 0.67 0 0.34 0 0 Z " fill="#719D60" transform="translate(131,183)"/>
<path d="M0 0 C4.43601966 3.51822249 5.52033129 7.75390186 7 13 C6.34 13 5.68 13 5 13 C5 12.01 5 11.02 5 10 C4.34 10 3.68 10 3 10 C0.96564469 6.27034861 0 4.33094958 0 0 Z " fill="#789B63" transform="translate(319,170)"/>
<path d="M0 0 C0.33 0.66 0.66 1.32 1 2 C0.67 2.99 0.34 3.98 0 5 C-0.66 5 -1.32 5 -2 5 C-2 5.66 -2 6.32 -2 7 C-3.75 8.5078125 -3.75 8.5078125 -6 10.125 C-6.7425 10.66382813 -7.485 11.20265625 -8.25 11.7578125 C-8.8275 12.16773438 -9.405 12.57765625 -10 13 C-10.66 12.67 -11.32 12.34 -12 12 C-11.319375 11.505 -10.63875 11.01 -9.9375 10.5 C-6.21041414 7.32801203 -3.14666758 3.73610099 0 0 Z " fill="#8DA87B" transform="translate(278,292)"/>
<path d="M0 0 C0.66 0.33 1.32 0.66 2 1 C0.71034824 2.37562854 -0.62689293 3.70766393 -2 5 C-2.66 5 -3.32 5 -4 5 C-4 5.99 -4 6.98 -4 8 C-5.98 8.66 -7.96 9.32 -10 10 C-8.5741914 6.54804233 -6.90253666 4.8985744 -3.875 2.75 C-3.15054687 2.22921875 -2.42609375 1.7084375 -1.6796875 1.171875 C-1.12539063 0.78515625 -0.57109375 0.3984375 0 0 Z " fill="#3F7516" transform="translate(318,256)"/>
<path d="M0 0 C0.66 0.33 1.32 0.66 2 1 C0.04660421 4.711452 -1.25421414 6.24416288 -5 8 C-6.73425773 10.03317007 -6.73425773 10.03317007 -8 12 C-8.66 11.67 -9.32 11.34 -10 11 C-6.7 7.37 -3.4 3.74 0 0 Z " fill="#85A070" transform="translate(263,163)"/>
<path d="M0 0 C0.99 0.33 1.98 0.66 3 1 C0.03 3.97 -2.94 6.94 -6 10 C-6.33 9.01 -6.66 8.02 -7 7 C-6.34 6.01 -5.68 5.02 -5 4 C-4.34 4 -3.68 4 -3 4 C-2.67 3.01 -2.34 2.02 -2 1 C-1.34 0.67 -0.68 0.34 0 0 Z " fill="#78A45E" transform="translate(171,146)"/>
<path d="M0 0 C2.64 0.66 5.28 1.32 8 2 C8 2.66 8 3.32 8 4 C9.65 4.33 11.3 4.66 13 5 C13 5.99 13 6.98 13 8 C8.27626146 6.37621488 4.05818166 3.89006982 0 1 C0 0.67 0 0.34 0 0 Z " fill="#7FA16C" transform="translate(44,134)"/>
<path d="M0 0 C3.99353689 2.05073516 6.21127442 3.82630698 8 8 C7.8125 10.75 7.8125 10.75 7 13 C6.01 13.495 6.01 13.495 5 14 C4.97421875 13.38511719 4.9484375 12.77023438 4.921875 12.13671875 C4.75034891 7.03484954 4.75034891 7.03484954 1.9375 3.0625 C1.298125 2.711875 0.65875 2.36125 0 2 C0 1.34 0 0.68 0 0 Z " fill="#88A676" transform="translate(442,120)"/>
<path d="M0 0 C-0.0625 1.8125 -0.0625 1.8125 -1 4 C-6.87517908 7.21472063 -6.87517908 7.21472063 -10.23046875 6.57421875 C-10.81441406 6.38472656 -11.39835937 6.19523437 -12 6 C-10.37829621 4.99466333 -8.75252763 3.99588093 -7.125 3 C-5.76761719 2.1646875 -5.76761719 2.1646875 -4.3828125 1.3125 C-2 0 -2 0 0 0 Z " fill="#72945F" transform="translate(120,82)"/>
<path d="M0 0 C0 0.66 0 1.32 0 2 C-0.66 2 -1.32 2 -2 2 C-2.33 3.32 -2.66 4.64 -3 6 C-5.875 6.625 -5.875 6.625 -9 7 C-9.66 6.34 -10.32 5.68 -11 5 C-9.54462432 4.16151196 -8.08559627 3.32936066 -6.625 2.5 C-5.81289062 2.0359375 -5.00078125 1.571875 -4.1640625 1.09375 C-2 0 -2 0 0 0 Z " fill="#749763" transform="translate(230,20)"/>
<path d="M0 0 C0.99 0 1.98 0 3 0 C3 0.66 3 1.32 3 2 C3.66 2 4.32 2 5 2 C5 2.66 5 3.32 5 4 C5.99 4 6.98 4 8 4 C8.33 5.65 8.66 7.3 9 9 C9.66 9 10.32 9 11 9 C10.67 9.66 10.34 10.32 10 11 C8.70145279 9.92492371 7.41141639 8.83956264 6.125 7.75 C5.40570313 7.14671875 4.68640625 6.5434375 3.9453125 5.921875 C2.02947882 4.02912366 1.03550955 2.46342273 0 0 Z " fill="#76995B" transform="translate(297,351)"/>
<path d="M0 0 C2.475 0.495 2.475 0.495 5 1 C5 1.99 5 2.98 5 4 C5.66 4 6.32 4 7 4 C7 4.66 7 5.32 7 6 C7.66 6 8.32 6 9 6 C9.33 7.32 9.66 8.64 10 10 C5.61899946 8.53966649 2.95600449 5.68438886 0.6875 1.6875 C0.460625 1.130625 0.23375 0.57375 0 0 Z " fill="#6E9954" transform="translate(287,341)"/>
<path d="M0 0 C3.33193619 2.69728168 4.60371996 6.02060187 6 10 C5.578125 12.22265625 5.578125 12.22265625 5 14 C4.15675328 12.421924 3.32576082 10.8372958 2.5 9.25 C2.0359375 8.36828125 1.571875 7.4865625 1.09375 6.578125 C0 4 0 4 0 0 Z " fill="#CCDA79" transform="translate(83,278)"/>
<path d="M0 0 C0.66 0.33 1.32 0.66 2 1 C2 1.99 2 2.98 2 4 C2.66 4 3.32 4 4 4 C4 4.66 4 5.32 4 6 C5.65 6.33 7.3 6.66 9 7 C9 7.66 9 8.32 9 9 C5.59687262 7.94124926 2.98646769 6.99097846 0 5 C0 4.34 0 3.68 0 3 C-0.99 2.67 -1.98 2.34 -3 2 C-2.01 1.34 -1.02 0.68 0 0 Z " fill="#90A465" transform="translate(260,460)"/>
<path d="M0 0 C2.97 0 5.94 0 9 0 C9 0.66 9 1.32 9 2 C10.65 2.33 12.3 2.66 14 3 C14.33 3.99 14.66 4.98 15 6 C12.61787452 5.07361787 10.30569658 4.16764006 8.0625 2.9375 C5.42494429 1.73861104 2.85795906 1.38972169 0 1 C0 0.67 0 0.34 0 0 Z " fill="#81A36E" transform="translate(222,136)"/>
<path d="M0 0 C-3.31382958 2.20921972 -6.17633913 2.945197 -10 4 C-11.67632417 4.64199649 -13.34750513 5.29894157 -15 6 C-14.67 4.68 -14.34 3.36 -14 2 C-9.126739 0.4087311 -5.19209404 -0.21192221 0 0 Z " fill="#759E5A" transform="translate(277,135)"/>
<path d="M0 0 C0.99 0 1.98 0 3 0 C5.91033076 3.66486096 6.32136655 6.39374606 6 11 C5.34 10.34 4.68 9.68 4 9 C4 8.01 4 7.02 4 6 C3.01 5.67 2.02 5.34 1 5 C0.67 3.35 0.34 1.7 0 0 Z " fill="#82A256" transform="translate(319,399)"/>
<path d="M0 0 C0.66 0.33 1.32 0.66 2 1 C1.01 1.33 0.02 1.66 -1 2 C-1 2.99 -1 3.98 -1 5 C0.32 5 1.64 5 3 5 C3 5.99 3 6.98 3 8 C0.0625 7.25 0.0625 7.25 -3 6 C-3.875 3.875 -3.875 3.875 -4 2 C-2.125 0.9375 -2.125 0.9375 0 0 Z " fill="#85A07E" transform="translate(422,231)"/>
<path d="M0 0 C0 0.99 0 1.98 0 3 C-1.24176695 3.70226141 -2.49385599 4.38629109 -3.75 5.0625 C-4.79414062 5.63677734 -4.79414062 5.63677734 -5.859375 6.22265625 C-8.36140628 7.1312406 -9.5332355 6.88336837 -12 6 C-10.37829621 4.99466333 -8.75252763 3.99588093 -7.125 3 C-5.76761719 2.1646875 -5.76761719 2.1646875 -4.3828125 1.3125 C-2 0 -2 0 0 0 Z " fill="#7FA36B" transform="translate(100,93)"/>
<path d="M0 0 C0.99 0 1.98 0 3 0 C3 0.66 3 1.32 3 2 C3.66 2 4.32 2 5 2 C7.625 4.3125 7.625 4.3125 10 7 C10 7.99 10 8.98 10 10 C8 10 8 10 5.5625 7.8125 C3.27620043 5.30314682 1.61222381 2.96988596 0 0 Z " fill="#7B9A62" transform="translate(308,362)"/>
<path d="M0 0 C0.66 0.33 1.32 0.66 2 1 C-0.64 3.64 -3.28 6.28 -6 9 C-7.24546405 6.50907189 -6.7767578 5.58919267 -6 3 C-5.01 3 -4.02 3 -3 3 C-3 2.34 -3 1.68 -3 1 C-2.01 0.67 -1.02 0.34 0 0 Z " fill="#CAD970" transform="translate(207,341)"/>
<path d="M0 0 C0.66 0.33 1.32 0.66 2 1 C0.59447701 2.03612271 -0.82491694 3.05344925 -2.25 4.0625 C-3.43335938 4.91521484 -3.43335938 4.91521484 -4.640625 5.78515625 C-7 7 -7 7 -9.296875 6.68359375 C-9.85890625 6.45800781 -10.4209375 6.23242188 -11 6 C-9.73168307 5.18357746 -8.46024069 4.37200895 -7.1875 3.5625 C-6.47980469 3.11003906 -5.77210938 2.65757812 -5.04296875 2.19140625 C-3 1 -3 1 0 0 Z " fill="#7FA467" transform="translate(349,228)"/>
<path d="M0 0 C0 0.99 0 1.98 0 3 C-5.25714286 7 -5.25714286 7 -8 7 C-7.62005832 4.24542282 -7.1926367 3.17979426 -5.125 1.25 C-3 0 -3 0 0 0 Z " fill="#6B9556" transform="translate(182,139)"/>
<path d="M0 0 C3.78527521 0.51152368 5.44108688 1.20845842 8 4 C8.99 4.33 9.98 4.66 11 5 C11 5.66 11 6.32 11 7 C6.00724943 5.72278474 3.42388092 3.82669043 0 0 Z " fill="#8EA260" transform="translate(181,462)"/>
<path d="M0 0 C-0.33 1.32 -0.66 2.64 -1 4 C-1 3.34 -1 2.68 -1 2 C-5.31392226 2.4793247 -7.16569547 3.7457985 -10 7 C-10 5.68 -10 4.36 -10 3 C-9.34 3 -8.68 3 -8 3 C-8 2.34 -8 1.68 -8 1 C-5.29120665 -0.35439668 -2.99066732 -0.06501451 0 0 Z " fill="#9FB274" transform="translate(251,450)"/>
<path d="M0 0 C1 2 1 2 0.4375 4.3125 C-1.47539467 7.88878134 -3.78248866 9.55189355 -7 12 C-7.33 11.34 -7.66 10.68 -8 10 C-7.34 10 -6.68 10 -6 10 C-5.7525 9.46375 -5.505 8.9275 -5.25 8.375 C-3.70303025 5.43575748 -1.86985631 2.74245592 0 0 Z " fill="#78943E" transform="translate(198,372)"/>
<path d="M0 0 C3.17538332 0.34021964 4.02276865 1.02466604 6.25 3.4375 C8 6 8 6 8 8 C8.66 8 9.32 8 10 8 C9.67 8.66 9.34 9.32 9 10 C7.68113228 8.90344712 6.37009943 7.79746577 5.0625 6.6875 C4.33160156 6.07261719 3.60070312 5.45773437 2.84765625 4.82421875 C1 3 1 3 0 0 Z " fill="#92B27E" transform="translate(234,288)"/>
<path d="M0 0 C-4.42778844 2.74522883 -7.71862571 4.48474397 -13 5 C-9.25316241 0.83684713 -5.67827303 -2.10306409 0 0 Z " fill="#80A069" transform="translate(278,158)"/>
<path d="M0 0 C3.91211733 1.15585285 6.8745041 2.35534962 10 5 C9.34 5.66 8.68 6.32 8 7 C1.125 3.375 1.125 3.375 0 0 Z " fill="#759A63" transform="translate(432,115)"/>
<path d="M0 0 C2.5 1.375 2.5 1.375 5 3 C5 3.66 5 4.32 5 5 C5.66 5 6.32 5 7 5 C7 5.66 7 6.32 7 7 C7.66 7 8.32 7 9 7 C8.67 7.66 8.34 8.32 8 9 C6 9 6 9 3.4375 6.75 C1.23284071 4.26269209 0.35596045 3.20364405 0 0 Z " fill="#9DB076" transform="translate(278,355)"/>
<path d="M0 0 C0.66 0.33 1.32 0.66 2 1 C0.92492371 2.29854721 -0.16043736 3.58858361 -1.25 4.875 C-1.85328125 5.59429687 -2.4565625 6.31359375 -3.078125 7.0546875 C-4.97087634 8.97052118 -6.53657727 9.96449045 -9 11 C-9 9 -9 9 -6.75 6.5 C-4.4735035 4.43045772 -2.80433554 3.14250707 0 2 C0 1.34 0 0.68 0 0 Z " fill="#3E7217" transform="translate(276,297)"/>
<path d="M0 0 C0.66 0.33 1.32 0.66 2 1 C1 3 0 5 -1 7 C-2.65 7 -4.3 7 -6 7 C-6.33 7.99 -6.66 8.98 -7 10 C-7.33 9.34 -7.66 8.68 -8 8 C-5.33333333 5.33333333 -2.66666667 2.66666667 0 0 Z " fill="#517D2D" transform="translate(286,286)"/>
<path d="M0 0 C1.65 1.32 3.3 2.64 5 4 C5 3.34 5 2.68 5 2 C5.66 2.33 6.32 2.66 7 3 C6.34 4.65 5.68 6.3 5 8 C2 7 2 7 0.8125 5.125 C0 3 0 3 0 0 Z " fill="#8D9C83" transform="translate(434,252)"/>
<path d="M0 0 C2.97 0.495 2.97 0.495 6 1 C6.66 3.31 7.32 5.62 8 8 C7.34 8 6.68 8 6 8 C4.4921875 6.25 4.4921875 6.25 2.875 4 C2.33617187 3.2575 1.79734375 2.515 1.2421875 1.75 C0.62730469 0.88375 0.62730469 0.88375 0 0 Z " fill="#7E9F61" transform="translate(202,256)"/>
<path d="M0 0 C1.46067199 0.45082469 2.91848032 0.91093537 4.375 1.375 C5.18710937 1.63023437 5.99921875 1.88546875 6.8359375 2.1484375 C9 3 9 3 11 5 C3.57142857 4 3.57142857 4 0 3 C0 2.01 0 1.02 0 0 Z " fill="#709454" transform="translate(380,228)"/>
<path d="M0 0 C0.33 0 0.66 0 1 0 C1 1.65 1 3.3 1 5 C0.01 5.33 -0.98 5.66 -2 6 C-2 6.66 -2 7.32 -2 8 C-4.375 9.6875 -4.375 9.6875 -7 11 C-7.66 10.67 -8.32 10.34 -9 10 C-7.8803014 8.99406757 -6.7540588 7.9954151 -5.625 7 C-4.99851562 6.443125 -4.37203125 5.88625 -3.7265625 5.3125 C-2 4 -2 4 0 4 C0 2.68 0 1.36 0 0 Z " fill="#638D58" transform="translate(433,220)"/>
<path d="M0 0 C5.28798182 0.41474367 8.11690718 1.35224614 12 5 C8.37471432 5.20140476 6.13498292 4.85776765 3 3 C3 2.34 3 1.68 3 1 C2.01 0.67 1.02 0.34 0 0 Z " fill="#83A26C" transform="translate(218,157)"/>
<path d="M0 0 C4.30764815 1.56641751 8.06171464 3.68336156 12 6 C11.01 6.66 10.02 7.32 9 8 C8.67 7.01 8.34 6.02 8 5 C6.68 5 5.36 5 4 5 C4 4.34 4 3.68 4 3 C2.68 3 1.36 3 0 3 C0 2.01 0 1.02 0 0 Z " fill="#7DA16F" transform="translate(338,62)"/>
<path d="M0 0 C-3.69172595 3.53790403 -7.09390595 3.59115883 -12 4 C-8.35616205 0.00912986 -5.26350451 -0.11696677 0 0 Z " fill="#8FA461" transform="translate(305,468)"/>
<path d="M0 0 C-1.26538369 0.84158536 -2.53753779 1.67299748 -3.8125 2.5 C-4.87404297 3.19609375 -4.87404297 3.19609375 -5.95703125 3.90625 C-8 5 -8 5 -11 5 C-11 4.34 -11 3.68 -11 3 C-9.68 3 -8.36 3 -7 3 C-7 2.01 -7 1.02 -7 0 C-2.25 -1.125 -2.25 -1.125 0 0 Z " fill="#608543" transform="translate(394,388)"/>
<path d="M0 0 C0.33 0.99 0.66 1.98 1 3 C-0.9375 5.6875 -0.9375 5.6875 -3 8 C-3.99 7.67 -4.98 7.34 -6 7 C-4.02 4.69 -2.04 2.38 0 0 Z " fill="#879E58" transform="translate(220,350)"/>
<path d="M0 0 C0.33 0.66 0.66 1.32 1 2 C-0.44806239 6.34418718 -3.38861564 7.17253236 -7.3125 9.1875 C-7.869375 9.455625 -8.42625 9.72375 -9 10 C-9 9.34 -9 8.68 -9 8 C-7.28515625 6.30859375 -7.28515625 6.30859375 -5.0625 4.4375 C-3.96615234 3.50744141 -3.96615234 3.50744141 -2.84765625 2.55859375 C-2.23792969 2.04425781 -1.62820312 1.52992188 -1 1 C-0.67 0.67 -0.34 0.34 0 0 Z " fill="#D1E186" transform="translate(105,312)"/>
<path d="M0 0 C0.99 0 1.98 0 3 0 C1.33333333 3.33333333 -0.33333333 6.66666667 -2 10 C-2.33 10 -2.66 10 -3 10 C-3 8.02 -3 6.04 -3 4 C-2.34 4 -1.68 4 -1 4 C-0.67 2.68 -0.34 1.36 0 0 Z " fill="#779D64" transform="translate(157,161)"/>
<path d="M0 0 C0.33 0.66 0.66 1.32 1 2 C-0.21258505 5.23356015 -1.01284458 6.00856305 -4 8 C-4.99 7.67 -5.98 7.34 -7 7 C-4.66666667 4.66666667 -2.33333333 2.33333333 0 0 Z " fill="#92A768" transform="translate(228,342)"/>
<path d="M0 0 C0 3.62031557 -1.1430506 4.95460298 -3 8 C-3.69579454 10.19130534 -3.69579454 10.19130534 -4 12 C-4.66 11.34 -5.32 10.68 -6 10 C-5.84831437 5.75280228 -2.67183599 3.01437907 0 0 Z " fill="#91AA82" transform="translate(265,305)"/>
<path d="M0 0 C3.91402949 1.26941497 5.79072873 2.51167694 8 6 C5.03 5.505 5.03 5.505 2 5 C2 4.34 2 3.68 2 3 C1.34 3 0.68 3 0 3 C0 2.01 0 1.02 0 0 Z " fill="#7B9C62" transform="translate(391,233)"/>
<path d="M0 0 C2.99324263 1.0975223 3.84610901 1.67682892 5.25 4.625 C5.4975 5.40875 5.745 6.1925 6 7 C6.66 7 7.32 7 8 7 C7.67 7.66 7.34 8.32 7 9 C3.17475764 7.549046 1.80909034 5.61818068 0 2 C0 1.34 0 0.68 0 0 Z " fill="#7F9C65" transform="translate(236,167)"/>
<path d="M0 0 C3.93673644 1.31224548 6.22719294 2.91910327 9 6 C6.36 5.34 3.72 4.68 1 4 C0.67 2.68 0.34 1.36 0 0 Z " fill="#75995D" transform="translate(306,159)"/>
<path d="M0 0 C1.65 0 3.3 0 5 0 C5 0.66 5 1.32 5 2 C0.545 3.485 0.545 3.485 -4 5 C-4 4.01 -4 3.02 -4 2 C-2.68 2 -1.36 2 0 2 C0 1.34 0 0.68 0 0 Z " fill="#7CA866" transform="translate(186,136)"/>
<path d="M0 0 C0 0.99 0 1.98 0 3 C-2.90600261 4.25664978 -4.79604584 5 -8 5 C-8 5.66 -8 6.32 -8 7 C-9.32 6.67 -10.64 6.34 -12 6 C-10.37829621 4.99466333 -8.75252763 3.99588093 -7.125 3 C-5.76761719 2.1646875 -5.76761719 2.1646875 -4.3828125 1.3125 C-2 0 -2 0 0 0 Z " fill="#88AB73" transform="translate(61,115)"/>
<path d="M0 0 C4.30764815 1.56641751 8.06171464 3.68336156 12 6 C8.01265823 7.32911392 8.01265823 7.32911392 5 6 C3.15457554 4.10184912 1.61574866 2.10944964 0 0 Z " fill="#80A372" transform="translate(404,99)"/>
<path d="M0 0 C3.0831351 1.19899698 6.06279492 2.47700477 9 4 C9 4.33 9 4.66 9 5 C3.5 5.36666667 3.5 5.36666667 1.125 3.625 C0 2 0 2 0 0 Z " fill="#6D9157" transform="translate(278,29)"/>
<path d="M0 0 C1.32 0 2.64 0 4 0 C4 0.66 4 1.32 4 2 C3.071875 2.45375 2.14375 2.9075 1.1875 3.375 C-2.03921389 4.9421633 -2.03921389 4.9421633 -5 7 C-4.67 5.35 -4.34 3.7 -4 2 C-2.68 2 -1.36 2 0 2 C0 1.34 0 0.68 0 0 Z " fill="#71916A" transform="translate(451,236)"/>
<path d="M0 0 C7.625 1.75 7.625 1.75 11 4 C11 4.66 11 5.32 11 6 C6.95743617 4.77782954 3.50711041 3.37245704 0 1 C0 0.67 0 0.34 0 0 Z " fill="#85A871" transform="translate(120,177)"/>
<path d="M0 0 C-1.45537568 0.83848804 -2.91440373 1.67063934 -4.375 2.5 C-5.59316406 3.19609375 -5.59316406 3.19609375 -6.8359375 3.90625 C-9 5 -9 5 -11 5 C-10.67 4.01 -10.34 3.02 -10 2 C-9.01 2 -8.02 2 -7 2 C-7 1.34 -7 0.68 -7 0 C-3.98968256 -0.93423645 -3.13349732 -1.04449911 0 0 Z " fill="#86A173" transform="translate(409,158)"/>
<path d="M0 0 C0.66 0.33 1.32 0.66 2 1 C-1.96 4.465 -1.96 4.465 -6 8 C-6.33 7.34 -6.66 6.68 -7 6 C-3.375 1.125 -3.375 1.125 0 0 Z " fill="#CBD96B" transform="translate(169,379)"/>
<path d="M0 0 C0.66 0.33 1.32 0.66 2 1 C2 2.98 2 4.96 2 7 C1.34 7 0.68 7 0 7 C-0.33 7.66 -0.66 8.32 -1 9 C-1.09765625 2.84765625 -1.09765625 2.84765625 -1 1 C-0.67 0.67 -0.34 0.34 0 0 Z " fill="#3C772C" transform="translate(437,153)"/>
<path d="M0 0 C0.66 0.33 1.32 0.66 2 1 C0.06745228 3.0245738 -1.63158688 4.42105792 -4 6 C-6.1875 5.625 -6.1875 5.625 -8 5 C-6.71475739 4.13619741 -5.42157581 3.28419631 -4.125 2.4375 C-3.04605469 1.72400391 -3.04605469 1.72400391 -1.9453125 0.99609375 C-1.30335937 0.66738281 -0.66140625 0.33867188 0 0 Z " fill="#7CA46E" transform="translate(75,106)"/>
<path d="M0 0 C0 0.66 0 1.32 0 2 C-0.99 2 -1.98 2 -3 2 C-3 2.99 -3 3.98 -3 5 C-5.31 5.33 -7.62 5.66 -10 6 C-7.35570758 3.077361 -4.105808 0 0 0 Z " fill="#86AA73" transform="translate(166,56)"/>
<path d="M0 0 C1.31823302 0.59155331 2.62947051 1.19871463 3.9375 1.8125 C5.03384766 2.31716797 5.03384766 2.31716797 6.15234375 2.83203125 C8 4 8 4 9 7 C8.01 6.67 7.02 6.34 6 6 C6 5.34 6 4.68 6 4 C3.03 3.505 3.03 3.505 0 3 C0 2.01 0 1.02 0 0 Z " fill="#6D925B" transform="translate(295,38)"/>
<path d="M0 0 C2.04219706 1.69179328 2.91793306 2.63727666 3.51171875 5.26171875 C3.56972656 6.06222656 3.62773437 6.86273438 3.6875 7.6875 C3.75324219 8.49574219 3.81898438 9.30398438 3.88671875 10.13671875 C3.92410156 10.75160156 3.96148437 11.36648438 4 12 C1.21366885 7.82050327 0 5.06624674 0 0 Z " fill="#A9B88B" transform="translate(166,437)"/>
<path d="M0 0 C0 3 0 3 -2.375 5.6875 C-5 8 -5 8 -7 8 C-7 7.01 -7 6.02 -7 5 C-6.401875 4.731875 -5.80375 4.46375 -5.1875 4.1875 C-3.02775192 3.01506533 -1.64209744 1.80630718 0 0 Z " fill="#7BA068" transform="translate(401,379)"/>
<path d="M0 0 C0.99 0 1.98 0 3 0 C3 0.66 3 1.32 3 2 C4.32 2.66 5.64 3.32 7 4 C6.67 4.99 6.34 5.98 6 7 C1.125 2.25 1.125 2.25 0 0 Z " fill="#729157" transform="translate(318,372)"/>
<path d="M0 0 C3.36720387 1.39332574 4.9859524 2.9789286 7 6 C3 6 3 6 1.25 4.6875 C0 3 0 3 0 0 Z " fill="#799C61" transform="translate(392,316)"/>
<path d="M0 0 C2.5625 2.1875 2.5625 2.1875 5 5 C4.8125 7.8125 4.8125 7.8125 4 10 C3.67 10 3.34 10 3 10 C3 8.02 3 6.04 3 4 C2.01 4 1.02 4 0 4 C0 2.68 0 1.36 0 0 Z " fill="#C8D581" transform="translate(230,307)"/>
<path d="M0 0 C1.98 0.66 3.96 1.32 6 2 C6 2.66 6 3.32 6 4 C6.66 4 7.32 4 8 4 C7.67 4.66 7.34 5.32 7 6 C3.75728494 5.4409112 2.06942576 4.5867822 0 2 C0 1.34 0 0.68 0 0 Z " fill="#BCD25C" transform="translate(221,301)"/>
<path d="M0 0 C0.99 0 1.98 0 3 0 C3 0.66 3 1.32 3 2 C3.99 2 4.98 2 6 2 C6.33 3.32 6.66 4.64 7 6 C5.1875 5.8125 5.1875 5.8125 3 5 C1.25 2.4375 1.25 2.4375 0 0 Z " fill="#648C46" transform="translate(229,282)"/>
<path d="M0 0 C2.78388975 1.70625501 3.85384206 2.47626739 4.75 5.6875 C4.8325 6.450625 4.915 7.21375 5 8 C4.34 8 3.68 8 3 8 C3 7.01 3 6.02 3 5 C2.01 5 1.02 5 0 5 C0 3.35 0 1.7 0 0 Z " fill="#BCCF58" transform="translate(194,271)"/>
<path d="M0 0 C0.66 0.33 1.32 0.66 2 1 C-0.31 3.31 -2.62 5.62 -5 8 C-5.33 6.68 -5.66 5.36 -6 4 C-5.01 4 -4.02 4 -3 4 C-3 3.34 -3 2.68 -3 2 C-2.01 1.34 -1.02 0.68 0 0 Z " fill="#709354" transform="translate(302,245)"/>
<path d="M0 0 C1.32 0.33 2.64 0.66 4 1 C2.35 2.98 0.7 4.96 -1 7 C-1.66 6.34 -2.32 5.68 -3 5 C-2.01 4.67 -1.02 4.34 0 4 C0 2.68 0 1.36 0 0 Z " fill="#77975E" transform="translate(316,227)"/>
<path d="M0 0 C-5.14285714 4.42857143 -5.14285714 4.42857143 -9 5 C-8.34 4.67 -7.68 4.34 -7 4 C-7 3.01 -7 2.02 -7 1 C-4.53721199 -0.231394 -2.7204945 -0.07159196 0 0 Z " fill="#7FA366" transform="translate(262,141)"/>
<path d="M0 0 C0.66 0.33 1.32 0.66 2 1 C0.9375 2.9375 0.9375 2.9375 -1 5 C-4.6875 5.75 -4.6875 5.75 -8 6 C-5.38485683 3.87961365 -2.80362384 1.86908256 0 0 Z " fill="#829F73" transform="translate(153,62)"/>
<path d="M0 0 C2.4375 0.6875 2.4375 0.6875 5 2 C5.8125 4.625 5.8125 4.625 6 7 C1.125 2.25 1.125 2.25 0 0 Z " fill="#9AB074" transform="translate(251,454)"/>
<path d="M0 0 C0.66 0 1.32 0 2 0 C1.5206753 4.31392226 0.2542015 6.16569547 -3 9 C-2.67 7.35 -2.34 5.7 -2 4 C-1.34 4 -0.68 4 0 4 C0 2.68 0 1.36 0 0 Z " fill="#6A914F" transform="translate(405,370)"/>
<path d="M0 0 C0.33 0.66 0.66 1.32 1 2 C0.67 2.99 0.34 3.98 0 5 C-3.0625 6.1875 -3.0625 6.1875 -6 7 C-4.77065985 3.31197956 -3.06140622 2.27643027 0 0 Z " fill="#9BAE70" transform="translate(235,335)"/>
<path d="M0 0 C1.32 0.33 2.64 0.66 4 1 C3.38125 1.433125 2.7625 1.86625 2.125 2.3125 C-0.2197245 3.99740483 -0.2197245 3.99740483 -2 7 C-2.33 5.35 -2.66 3.7 -3 2 C-2.01 2 -1.02 2 0 2 C0 1.34 0 0.68 0 0 Z " fill="#6A9248" transform="translate(388,305)"/>
<path d="M0 0 C0 0.66 0 1.32 0 2 C-0.66 2 -1.32 2 -2 2 C-2 2.66 -2 3.32 -2 4 C-2.66 4 -3.32 4 -4 4 C-4.33 4.99 -4.66 5.98 -5 7 C-6 5 -6 5 -5.6875 2.9375 C-4.56889531 -0.21493141 -3.22380587 0 0 0 Z " fill="#789A61" transform="translate(270,279)"/>
<path d="M0 0 C2.31 0.66 4.62 1.32 7 2 C7.33 3.32 7.66 4.64 8 6 C4.63408134 4.55746343 2.48952921 2.66735273 0 0 Z " fill="#7CA56B" transform="translate(237,142)"/>
<path d="M0 0 C5.75 -0.125 5.75 -0.125 8 1 C8 1.66 8 2.32 8 3 C5.36 2.67 2.72 2.34 0 2 C0 1.34 0 0.68 0 0 Z " fill="#7EA86A" transform="translate(298,134)"/>
<path d="M0 0 C6.52307692 -0.36923077 6.52307692 -0.36923077 8.9375 1.5 C9.288125 1.995 9.63875 2.49 10 3 C2.25 2.25 2.25 2.25 0 0 Z " fill="#8DA868" transform="translate(192,469)"/>
<path d="M0 0 C0.66 0.33 1.32 0.66 2 1 C-2.75 5 -2.75 5 -5 5 C-5 4.01 -5 3.02 -5 2 C-2.625 0.9375 -2.625 0.9375 0 0 Z " fill="#8AA560" transform="translate(310,463)"/>
<path d="M0 0 C0.66 0 1.32 0 2 0 C0.375 5.75 0.375 5.75 -3 8 C-3 6.68 -3 5.36 -3 4 C-2.34 4 -1.68 4 -1 4 C-0.67 2.68 -0.34 1.36 0 0 Z " fill="#B2C744" transform="translate(181,364)"/>
<path d="M0 0 C2.91517292 1.07401108 4.77810176 1.77810176 7 4 C6.67 4.99 6.34 5.98 6 7 C6 6.34 6 5.68 6 5 C5.01 5 4.02 5 3 5 C3 4.34 3 3.68 3 3 C2.34 3 1.68 3 1 3 C0.67 2.01 0.34 1.02 0 0 Z " fill="#437318" transform="translate(305,357)"/>
<path d="M0 0 C1.98 0.99 1.98 0.99 4 2 C4 2.66 4 3.32 4 4 C4.66 4 5.32 4 6 4 C6 4.66 6 5.32 6 6 C3.13275314 5.42655063 2.1385485 5.1385485 0 3 C0 2.01 0 1.02 0 0 Z " fill="#97AB71" transform="translate(262,339)"/>
<path d="M0 0 C4.75 0.75 4.75 0.75 7 3 C7 3.99 7 4.98 7 6 C6.34 6 5.68 6 5 6 C3.2856382 4.04072937 1.61594832 2.04119788 0 0 Z " fill="#7F9D65" transform="translate(273,328)"/>
<path d="M0 0 C1.98 0.99 1.98 0.99 4 2 C4 3.98 4 5.96 4 8 C2 6.25 2 6.25 0 4 C0 2.68 0 1.36 0 0 Z " fill="#57833A" transform="translate(404,248)"/>
<path d="M0 0 C1.98 0.99 1.98 0.99 4 2 C4 3.65 4 5.3 4 7 C2 5.75 2 5.75 0 4 C0 2.68 0 1.36 0 0 Z " fill="#7C9961" transform="translate(196,247)"/>
<path d="M0 0 C2.97 0.495 2.97 0.495 6 1 C6 2.65 6 4.3 6 6 C3.97945196 4.35830472 1.97956942 2.69088222 0 1 C0 0.67 0 0.34 0 0 Z " fill="#7CA562" transform="translate(181,234)"/>
</svg>
